<?xml version="1.0" encoding="UTF-8"?>
<!-- Created with Inkscape (http://www.inkscape.org/) -->
<svg id="svg2" width="36px" height="31px" version="1.1" xmlns="http://www.w3.org/2000/svg" xmlns:cc="http://creativecommons.org/ns#" xmlns:dc="http://purl.org/dc/elements/1.1/" xmlns:rdf="http://www.w3.org/1999/02/22-rdf-syntax-ns#" xmlns:xlink="http://www.w3.org/1999/xlink">
 <metadata id="metadata4">
  <rdf:RDF>
   <cc:Work rdf:about="">
    <dc:format>image/svg+xml</dc:format>
    <dc:type rdf:resource="http://purl.org/dc/dcmitype/StillImage"/>
    <dc:title/>
   </cc:Work>
  </rdf:RDF>
 </metadata>
 <g id="layer1">
  <g id="text3042">
   <path id="path3043" d="m19.454 5.6507c0.20312 6.8e-6 0.39322 0.044278 0.57031 0.13281 0.18229 0.088548 0.30989 0.19532 0.38281 0.32031 0.04166 0.12501 0.06249 0.26563 0.0625 0.42188-6e-6 0.25521-0.0599 0.45573-0.17969 0.60156-0.1198 0.14063-0.23178 0.21094-0.33594 0.21094-0.06771 5.1e-6 -0.13282-0.013016-0.19531-0.039063-0.0573-0.031245-0.13282-0.07812-0.22656-0.14062-0.08855-0.067703-0.14063-0.10677-0.15625-0.11719-0.1875-0.12499-0.38021-0.18749-0.57812-0.1875-0.30209 5.6e-6 -0.58594 0.17969-0.85156 0.53906-0.26563 0.35417-0.39844 0.64323-0.39844 0.86719v2.4062c-3e-6 0.60417 0.02604 0.98958 0.07813 1.1562 0.02083 0.07292 0.20312 0.13281 0.54688 0.17969 0.34895 0.04687 0.61458 0.07031 0.79688 0.07031 0.03125 0.04167 0.04687 0.11719 0.04687 0.22656 0.0052 0.10938-0.01042 0.1849-0.04687 0.22656-1.0677-0.05208-1.7135-0.07813-1.9375-0.07813-0.09896 0-0.68229 0.02604-1.75 0.07813-0.03646-0.04167-0.05469-0.11719-0.05469-0.22656 0.0052-0.10938 0.02344-0.1849 0.05469-0.22656 0.15104 1e-6 0.34635-0.02344 0.58594-0.07031 0.24479-0.04687 0.3776-0.10677 0.39844-0.17969 0.04166-0.13021 0.06771-0.51562 0.07813-1.1562v-2.9062c-2e-6 -0.41666-0.02604-0.68749-0.07813-0.8125-0.03125-0.078119-0.13021-0.14062-0.29688-0.1875-0.16667-0.046869-0.30729-0.072911-0.42188-0.078125-0.10938-0.010411-0.20833-0.015619-0.29688-0.015625-0.02083-0.020828-0.03386-0.083328-0.03906-0.1875 0-0.10416 0.01302-0.17708 0.03906-0.21875 0.89062-0.11979 1.6354-0.33854 2.2344-0.65625 0.03646 6.8e-6 0.07291 0.031257 0.10938 0.09375 0.04166 0.062507 0.0625 0.11459 0.0625 0.15625-0.01042 0.062506-0.03125 0.29949-0.0625 0.71094-0.03125 0.40626-0.04688 0.64844-0.04687 0.72656-3e-6 0.020838 0.0052 0.036463 0.01563 0.046875 0.01041 0.00521 0.01823 0.00782 0.02344 0.00781 0.01041-0.0052 0.01823-0.013016 0.02344-0.023437 0.17708-0.38541 0.44791-0.76041 0.8125-1.125 0.36458-0.36458 0.70833-0.54687 1.0312-0.54688"/>
   <path id="path3045" d="m22.462 8.0257c-1e-6 4.4e-6 0.84896 4.4e-6 2.5469 0 0.22395 4.4e-6 0.34375-0.11979 0.35938-0.35938 0.0052-0.10416-0.01563-0.23437-0.0625-0.39062-0.04688-0.15624-0.11719-0.3177-0.21094-0.48438-0.09375-0.16666-0.22917-0.30729-0.40625-0.42188-0.17709-0.11458-0.37761-0.17187-0.60156-0.17188-0.24479 6.3e-6 -0.46875 0.062506-0.67188 0.1875-0.20313 0.12501-0.36458 0.27865-0.48438 0.46094-0.11458 0.17709-0.21094 0.35678-0.28906 0.53906-0.07292 0.17709-0.125 0.32813-0.15625 0.45312-0.02604 0.125-0.03386 0.1875-0.02344 0.1875m-0.07813 0.57812c-0.02083 0.95313 0.21354 1.6927 0.70312 2.2187 0.49479 0.52084 1.1094 0.78125 1.8438 0.78125 0.375 1e-6 0.71354-0.09115 1.0156-0.27344 0.30729-0.18229 0.54166-0.36719 0.70312-0.55469 0.0052 2e-6 0.01822 0.01042 0.03906 0.03125 0.02083 0.01563 0.03906 0.04167 0.05469 0.07813 0.02083 0.03646 0.03124 0.07292 0.03125 0.10938-6e-6 0.08333-0.03126 0.17708-0.09375 0.28125-0.08334 0.13542-0.1875 0.27083-0.3125 0.40625-0.125 0.13542-0.28126 0.27604-0.46875 0.42188-0.1875 0.14583-0.41407 0.26562-0.67969 0.35938-0.26042 0.09375-0.53386 0.14062-0.82031 0.14062-0.91146 0-1.6615-0.30729-2.25-0.92188-0.58333-0.61979-0.875-1.3958-0.875-2.3281 0-0.5052 0.09635-0.99218 0.28906-1.4609 0.19271-0.46874 0.4375-0.86458 0.73438-1.1875 0.29687-0.32291 0.6276-0.58072 0.99219-0.77344 0.36458-0.19791 0.71875-0.29687 1.0625-0.29688 0.35416 6.8e-6 0.67448 0.054694 0.96094 0.16406 0.28645 0.10938 0.51302 0.2448 0.67969 0.40625 0.16666 0.15626 0.30468 0.33594 0.41406 0.53906 0.10937 0.20313 0.18489 0.38803 0.22656 0.55469 0.04166 0.16667 0.06249 0.32032 0.0625 0.46094-6e-6 0.23959-0.02865 0.42188-0.08594 0.54688-0.05209 0.1198-0.14844 0.1823-0.28906 0.1875-0.21355 0.015629-0.89063 0.039066-2.0312 0.070312-1.1354 0.026046-1.7708 0.039066-1.9062 0.039063"/>
   <path id="path3047" d="m31.579 1.5882c0.22395 1.09e-5 0.36979 0.010428 0.4375 0.03125 0.07291 0.020844 0.17187 0.072927 0.29688 0.15625 0.03645 0.036469 0.07031 0.10157 0.10156 0.19531 0.03645 0.088552 0.05468 0.16928 0.05469 0.24219-5e-6 0.13022-0.02344 0.2422-0.07031 0.33594-0.04167 0.088552-0.09896 0.15366-0.17188 0.19531-0.07292 0.036468-0.14063 0.06251-0.20312 0.078125-0.0573 0.010426-0.11719 0.015635-0.17969 0.015625-0.09375 9.6e-6 -0.2448-0.057282-0.45312-0.17188-0.17188-0.09374-0.32292-0.14062-0.45312-0.14062-0.25521 9.9e-6 -0.46354 0.13022-0.625 0.39062-0.16146 0.25522-0.23959 0.61459-0.23438 1.0781v1.9375h1.8438c0.05208 6.5e-6 0.07812 0.057298 0.07812 0.17188-5e-6 0.16667-0.07292 0.32292-0.21875 0.46875h-1.7031v4.0937c-3e-6 0.60417 0.02604 0.98958 0.07813 1.1562 0.02083 0.07292 0.16146 0.13281 0.42188 0.17969 0.26041 0.04687 0.46875 0.07031 0.625 0.07031 0.03125 0.04167 0.04687 0.11719 0.04687 0.22656 0.0052 0.10938-0.01042 0.1849-0.04687 0.22656-1.0677-0.05208-1.6458-0.07813-1.7344-0.07813-0.18229 0-0.35938 0.0052-0.53125 0.01563-0.16667 0.0052-0.35938 0.01563-0.57812 0.03125-0.21875 0.01563-0.40104 0.02604-0.54688 0.03125-0.03646-0.04167-0.05469-0.11719-0.05469-0.22656 0.0052-0.10938 0.02344-0.1849 0.05469-0.22656 0.15104 1e-6 0.34635-0.02344 0.58594-0.07031 0.24479-0.04687 0.3776-0.10677 0.39844-0.17969 0.05208-0.16667 0.07812-0.55208 0.07813-1.1562v-4.0937h-0.90625c-0.05208 5.9e-6 -0.07813-0.046869-0.07813-0.14062-1e-6 -0.026036 0.05729-0.10416 0.17188-0.23438 0.11458-0.13541 0.19271-0.22395 0.23438-0.26562h0.57812v-0.29688c-2e-6 -0.53645 0.09635-1.0625 0.28906-1.5781 0.19271-0.52082 0.42708-0.95572 0.70312-1.3047 0.28125-0.34895 0.57552-0.6302 0.88281-0.84375 0.3125-0.21353 0.58854-0.3203 0.82812-0.32031"/>
  </g>
  <g id="g3016" fill="#d32626">
   <path id="path3814" d="m13.062 16.219 0.9375 0.65625 0.25-0.375-0.90625-0.65625zm-2 2.7812 0.9375 0.6875 1.3438-1.875-0.9375-0.6875zm-1.7812 2.5-0.21875 0.3125 0.9375 0.65625 0.21875-0.3125 1.0938-1.5625-0.90625-0.65625zm-2.25 3.0938 0.9375 0.6875 1.3438-1.875-0.9375-0.6875zm-2 2.8125 0.9375 0.65625 1.3438-1.875-0.9375-0.65625zm-2 2.7812 0.9375 0.6875 1.3125-1.875-0.90625-0.65625z" color="#000000" style="block-progression:tb;text-indent:0;text-transform:none"/>
   <path id="path3022" d="m15.341 14.026-0.45183 4.5675-3.7316-2.6793 4.1834-1.8881z" fill-rule="evenodd" stroke="#d32626" stroke-width=".45938pt"/>
  </g>
 </g>
</svg>
