<?xml version="1.0" encoding="UTF-8" standalone="no"?>
<!-- Created with Inkscape (http://www.inkscape.org/) -->

<svg
   xmlns:dc="http://purl.org/dc/elements/1.1/"
   xmlns:cc="http://creativecommons.org/ns#"
   xmlns:rdf="http://www.w3.org/1999/02/22-rdf-syntax-ns#"
   xmlns:svg="http://www.w3.org/2000/svg"
   xmlns="http://www.w3.org/2000/svg"
   xmlns:sodipodi="http://sodipodi.sourceforge.net/DTD/sodipodi-0.dtd"
   xmlns:inkscape="http://www.inkscape.org/namespaces/inkscape"
   width="100"
   height="100"
   id="svg2"
   version="1.1"
   inkscape:version="0.48.5 r10040"
   sodipodi:docname="emptyCube_z.svg">
  <defs
     id="defs4">
    <marker
       inkscape:stockid="Arrow1Send"
       orient="auto"
       refY="0.0"
       refX="0.0"
       id="Arrow1Send"
       style="overflow:visible;">
      <path
         id="path3788"
         d="M 0.0,0.0 L 5.0,-5.0 L -12.5,0.0 L 5.0,5.0 L 0.0,0.0 z "
         style="fill-rule:evenodd;stroke:#000000;stroke-width:1.0pt;"
         transform="scale(0.2) rotate(180) translate(6,0)" />
    </marker>
    <marker
       inkscape:stockid="Arrow1Sstart"
       orient="auto"
       refY="0.0"
       refX="0.0"
       id="Arrow1Sstart"
       style="overflow:visible">
      <path
         id="path3785"
         d="M 0.0,0.0 L 5.0,-5.0 L -12.5,0.0 L 5.0,5.0 L 0.0,0.0 z "
         style="fill-rule:evenodd;stroke:#000000;stroke-width:1.0pt"
         transform="scale(0.2) translate(6,0)" />
    </marker>
    <inkscape:perspective
       sodipodi:type="inkscape:persp3d"
       inkscape:vp_x="-252.62268 : 156.72032 : 1"
       inkscape:vp_y="0 : 3383.9015 : 0"
       inkscape:vp_z="169.30198 : 147.12387 : 1"
       inkscape:persp3d-origin="-46.711117 : 100.32196 : 1"
       id="perspective3017" />
    <inkscape:perspective
       sodipodi:type="inkscape:persp3d"
       inkscape:vp_x="-253.15453 : 157.7729 : 1"
       inkscape:vp_y="0 : 3383.9015 : 0"
       inkscape:vp_z="168.77013 : 148.17645 : 1"
       inkscape:persp3d-origin="-47.242975 : 101.37454 : 1"
       id="perspective3017-1" />
  </defs>
  <sodipodi:namedview
     id="base"
     pagecolor="#ffffff"
     bordercolor="#666666"
     borderopacity="1.0"
     inkscape:pageopacity="0.0"
     inkscape:pageshadow="2"
     inkscape:zoom="5.6"
     inkscape:cx="25.816178"
     inkscape:cy="64.83126"
     inkscape:document-units="px"
     inkscape:current-layer="layer1"
     showgrid="false"
     inkscape:window-width="1920"
     inkscape:window-height="1178"
     inkscape:window-x="1920"
     inkscape:window-y="0"
     inkscape:window-maximized="1" />
  <metadata
     id="metadata7">
    <rdf:RDF>
      <cc:Work
         rdf:about="">
        <dc:format>image/svg+xml</dc:format>
        <dc:type
           rdf:resource="http://purl.org/dc/dcmitype/StillImage" />
        <dc:title />
      </cc:Work>
    </rdf:RDF>
  </metadata>
  <g
     inkscape:label="Layer 1"
     inkscape:groupmode="layer"
     id="layer1"
     transform="translate(0,-952.36218)">
    <path
       style="opacity:0.62735847000000000;fill:#cf9634;fill-opacity:1;stroke:#000000;stroke-width:0.5;stroke-linecap:butt;stroke-linejoin:miter;stroke-opacity:1;stroke-miterlimit:4;stroke-dasharray:0.5,0.5;stroke-dashoffset:0"
       d="M 15.657364,44.946686 51.783009,25.753788 91.418806,36.36039 63.134534,64.139585 z"
       id="path5430"
       inkscape:connector-curvature="0"
       transform="translate(0,952.36218)"
       sodipodi:nodetypes="ccccc" />
    <path
       style="opacity:0.62735847000000000;fill:#cf9634;fill-opacity:1;stroke:#000000;stroke-width:0.5;stroke-linecap:butt;stroke-linejoin:miter;stroke-opacity:1;stroke-miterlimit:4;stroke-dasharray:0.5,0.5;stroke-dashoffset:0"
       d="m 15.333564,1003.0765 37.018502,-20.08579 39.457226,9.89231 -28.819986,30.10068 z"
       id="path5430-4"
       inkscape:connector-curvature="0"
       sodipodi:nodetypes="ccccc" />
    <g
       sodipodi:type="inkscape:box3d"
       style="opacity:0.71698112;fill:none;stroke:#000000;stroke-width:0.5;stroke-linecap:round;stroke-linejoin:miter;stroke-miterlimit:4;stroke-opacity:1;stroke-dasharray:none;stroke-dashoffset:0"
       id="g3139"
       inkscape:perspectiveID="#perspective3017-1"
       inkscape:corner0="-0.23369865 : -0.00058071337 : 0 : 1"
       inkscape:corner7="-0.34871743 : -0.012607987 : 0.24117225 : 1">
      <path
         sodipodi:type="inkscape:box3dside"
         id="path3149"
         style="fill:none;stroke:#000000;stroke-opacity:1"
         inkscape:box3dsidetype="13"
         d="m 15.553799,1023.8629 47.45483,22.8302 28.580427,-38.5105 -39.357842,-12.96841 z" />
      <path
         sodipodi:type="inkscape:box3dside"
         id="path3141"
         style="fill:none;stroke:#000000;stroke-opacity:1"
         inkscape:box3dsidetype="6"
         d="m 15.553799,970.75179 0,53.11111 36.677415,-28.64871 0,-40.39719 z" />
      <path
         sodipodi:type="inkscape:box3dside"
         id="path3151"
         style="fill:none;stroke:#000000;stroke-opacity:1"
         inkscape:box3dsidetype="11"
         d="m 52.231214,954.817 39.357842,7.76209 0,45.60351 -39.357842,-12.96841 z" />
      <path
         sodipodi:type="inkscape:box3dside"
         id="path3143"
         style="fill:none;stroke:#000000;stroke-opacity:1"
         inkscape:box3dsidetype="5"
         d="M 15.553799,970.75179 63.008629,984.20236 91.589056,962.57909 52.231214,954.817 z" />
      <path
         sodipodi:type="inkscape:box3dside"
         id="path3147"
         style="fill:none;stroke:#000000;stroke-opacity:1"
         inkscape:box3dsidetype="14"
         d="m 63.008629,984.20236 0,62.49074 28.580427,-38.5105 0,-45.60351 z" />
      <path
         sodipodi:type="inkscape:box3dside"
         id="path3145"
         style="fill:none;stroke:#000000;stroke-opacity:1"
         inkscape:box3dsidetype="3"
         d="m 15.553799,970.75179 47.45483,13.45057 0,62.49074 -47.45483,-22.8302 z" />
    </g>
    <path
       style="fill:none;stroke:#000000;stroke-width:0.88711488;stroke-linecap:butt;stroke-linejoin:miter;stroke-miterlimit:4;stroke-opacity:1;stroke-dasharray:none;marker-start:url(#Arrow1Sstart);marker-end:url(#Arrow1Send)"
       d="m 13.092466,997.21321 0.243639,6.72649"
       id="path10665"
       inkscape:connector-curvature="0" />
    <g
       transform="scale(1.0276261,0.9731166)"
       style="font-size:11.02545929px;font-style:normal;font-variant:normal;font-weight:normal;font-stretch:normal;line-height:125%;letter-spacing:0px;word-spacing:0px;fill:#000000;fill-opacity:1;stroke:none;font-family:IPAPMincho;-inkscape-font-specification:IPAPMincho"
       id="text11058">
      <path
         d="m 8.5422963,1027.4565 c -0.00718,-0.01 -0.032307,-0.025 -0.075369,-0.054 -0.032307,-0.022 -0.05743,-0.041 -0.075369,-0.059 -0.9187927,-0.6748 -1.3781864,-1.2544 -1.3781824,-1.7389 -4e-6,-0.3589 0.1579126,-0.6424 0.4737502,-0.8506 0.2261033,-0.14 0.4952793,-0.2099 0.8075288,-0.21 0.7644544,10e-5 1.5235307,0.2459 2.2772308,0.7376 0.236868,0.1579 0.355305,0.3122 0.355313,0.463 -8e-6,0.244 -0.118445,0.3661 -0.355313,0.366 -0.13639,10e-5 -0.285334,-0.081 -0.446832,-0.2422 -0.6460298,-0.6101 -1.2651346,-0.9152 -1.8573164,-0.9152 -0.4988782,0 -0.7483146,0.1992 -0.74831,0.5976 -4.6e-6,0.3696 0.572443,0.9134 1.7173445,1.6312 0.8613569,0.5383 1.2920389,1.2364 1.2920459,2.0942 -7e-6,0.8685 -0.245855,1.624 -0.7375429,2.2664 -0.5491258,0.7142 -1.2435998,1.0713 -2.0834241,1.0713 -0.4235083,0 -0.7949712,-0.1435 -1.1143897,-0.4306 -0.4414523,-0.3948 -0.6621766,-0.9206 -0.6621736,-1.5774 -3e-6,-1.1162 0.4701577,-2.0116 1.4104836,-2.6864 0.3230068,-0.2225 0.7231817,-0.3768 1.200526,-0.463 m 0.1776564,0.3177 c -0.6567952,0 -1.2112977,0.4271 -1.6635093,1.2812 -0.265591,0.4953 -0.3983845,1.0391 -0.3983808,1.6312 -3.7e-6,1.0803 0.3606921,1.6205 1.0820885,1.6205 0.5275802,0 1.0049189,-0.3338 1.4320177,-1.0013 0.4055522,-0.6245 0.6083315,-1.2831 0.6083383,-1.9758 -6.8e-6,-0.5599 -0.1471564,-0.987 -0.4414491,-1.2813 -0.183046,-0.183 -0.3894143,-0.2745 -0.6191053,-0.2745"
         style=""
         id="path11063" />
    </g>
  </g>
</svg>
