<?xml version="1.0" encoding="UTF-8" standalone="no"?>
<!-- Created with Inkscape (http://www.inkscape.org/) -->

<svg
   xmlns:dc="http://purl.org/dc/elements/1.1/"
   xmlns:cc="http://creativecommons.org/ns#"
   xmlns:rdf="http://www.w3.org/1999/02/22-rdf-syntax-ns#"
   xmlns:svg="http://www.w3.org/2000/svg"
   xmlns="http://www.w3.org/2000/svg"
   xmlns:sodipodi="http://sodipodi.sourceforge.net/DTD/sodipodi-0.dtd"
   xmlns:inkscape="http://www.inkscape.org/namespaces/inkscape"
   width="100"
   height="100"
   id="svg2"
   version="1.1"
   inkscape:version="0.48.5 r10040"
   sodipodi:docname="emptyCube_y.svg">
  <defs
     id="defs4">
    <marker
       inkscape:stockid="Arrow2Send"
       orient="auto"
       refY="0.0"
       refX="0.0"
       id="Arrow2Send"
       style="overflow:visible;">
      <path
         id="path3806"
         style="fill-rule:evenodd;stroke-width:0.62500000;stroke-linejoin:round;"
         d="M 8.7185878,4.0337352 L -2.2072895,0.016013256 L 8.7185884,-4.0017078 C 6.9730900,-1.6296469 6.9831476,1.6157441 8.7185878,4.0337352 z "
         transform="scale(0.3) rotate(180) translate(-2.3,0)" />
    </marker>
    <marker
       inkscape:stockid="Arrow2Mend"
       orient="auto"
       refY="0.0"
       refX="0.0"
       id="Arrow2Mend"
       style="overflow:visible;">
      <path
         id="path3800"
         style="fill-rule:evenodd;stroke-width:0.62500000;stroke-linejoin:round;"
         d="M 8.7185878,4.0337352 L -2.2072895,0.016013256 L 8.7185884,-4.0017078 C 6.9730900,-1.6296469 6.9831476,1.6157441 8.7185878,4.0337352 z "
         transform="scale(0.6) rotate(180) translate(0,0)" />
    </marker>
    <marker
       inkscape:stockid="Arrow1Mend"
       orient="auto"
       refY="0.0"
       refX="0.0"
       id="Arrow1Mend"
       style="overflow:visible;">
      <path
         id="path3782"
         d="M 0.0,0.0 L 5.0,-5.0 L -12.5,0.0 L 5.0,5.0 L 0.0,0.0 z "
         style="fill-rule:evenodd;stroke:#000000;stroke-width:1.0pt;"
         transform="scale(0.4) rotate(180) translate(10,0)" />
    </marker>
    <marker
       inkscape:stockid="Arrow1Mstart"
       orient="auto"
       refY="0.0"
       refX="0.0"
       id="Arrow1Mstart"
       style="overflow:visible">
      <path
         id="path3779"
         d="M 0.0,0.0 L 5.0,-5.0 L -12.5,0.0 L 5.0,5.0 L 0.0,0.0 z "
         style="fill-rule:evenodd;stroke:#000000;stroke-width:1.0pt"
         transform="scale(0.4) translate(10,0)" />
    </marker>
    <marker
       inkscape:stockid="Arrow2Sstart"
       orient="auto"
       refY="0.0"
       refX="0.0"
       id="Arrow2Sstart"
       style="overflow:visible">
      <path
         id="path3803"
         style="fill-rule:evenodd;stroke-width:0.62500000;stroke-linejoin:round"
         d="M 8.7185878,4.0337352 L -2.2072895,0.016013256 L 8.7185884,-4.0017078 C 6.9730900,-1.6296469 6.9831476,1.6157441 8.7185878,4.0337352 z "
         transform="scale(0.3) translate(-2.3,0)" />
    </marker>
    <marker
       inkscape:stockid="Arrow2Mstart"
       orient="auto"
       refY="0.0"
       refX="0.0"
       id="Arrow2Mstart"
       style="overflow:visible">
      <path
         id="path3797"
         style="fill-rule:evenodd;stroke-width:0.62500000;stroke-linejoin:round"
         d="M 8.7185878,4.0337352 L -2.2072895,0.016013256 L 8.7185884,-4.0017078 C 6.9730900,-1.6296469 6.9831476,1.6157441 8.7185878,4.0337352 z "
         transform="scale(0.6) translate(0,0)" />
    </marker>
    <inkscape:perspective
       sodipodi:type="inkscape:persp3d"
       inkscape:vp_x="-252.62268 : 156.72032 : 1"
       inkscape:vp_y="0 : 3383.9015 : 0"
       inkscape:vp_z="169.30198 : 147.12387 : 1"
       inkscape:persp3d-origin="-46.711117 : 100.32196 : 1"
       id="perspective3017" />
    <marker
       inkscape:stockid="Arrow1Mstart"
       orient="auto"
       refY="0"
       refX="0"
       id="Arrow1Mstart-7"
       style="overflow:visible">
      <path
         inkscape:connector-curvature="0"
         id="path3779-3"
         d="M 0,0 5,-5 -12.5,0 5,5 0,0 z"
         style="fill-rule:evenodd;stroke:#000000;stroke-width:1pt"
         transform="matrix(0.4,0,0,0.4,4,0)" />
    </marker>
    <marker
       inkscape:stockid="Arrow2Mend"
       orient="auto"
       refY="0"
       refX="0"
       id="Arrow2Mend-7"
       style="overflow:visible">
      <path
         inkscape:connector-curvature="0"
         id="path3800-1"
         style="fill-rule:evenodd;stroke-width:0.625;stroke-linejoin:round"
         d="M 8.7185878,4.0337352 -2.2072895,0.01601326 8.7185884,-4.0017078 c -1.7454984,2.3720609 -1.7354408,5.6174519 -6e-7,8.035443 z"
         transform="scale(-0.6,-0.6)" />
    </marker>
    <marker
       inkscape:stockid="Arrow1Mstart"
       orient="auto"
       refY="0"
       refX="0"
       id="Arrow1Mstart-2"
       style="overflow:visible">
      <path
         inkscape:connector-curvature="0"
         id="path3779-1"
         d="M 0,0 5,-5 -12.5,0 5,5 0,0 z"
         style="fill-rule:evenodd;stroke:#000000;stroke-width:1pt"
         transform="matrix(0.4,0,0,0.4,4,0)" />
    </marker>
    <marker
       inkscape:stockid="Arrow2Mend"
       orient="auto"
       refY="0"
       refX="0"
       id="Arrow2Mend-5"
       style="overflow:visible">
      <path
         inkscape:connector-curvature="0"
         id="path3800-0"
         style="fill-rule:evenodd;stroke-width:0.625;stroke-linejoin:round"
         d="M 8.7185878,4.0337352 -2.2072895,0.01601326 8.7185884,-4.0017078 c -1.7454984,2.3720609 -1.7354408,5.6174519 -6e-7,8.035443 z"
         transform="scale(-0.6,-0.6)" />
    </marker>
  </defs>
  <sodipodi:namedview
     id="base"
     pagecolor="#ffffff"
     bordercolor="#666666"
     borderopacity="1.0"
     inkscape:pageopacity="0.0"
     inkscape:pageshadow="2"
     inkscape:zoom="7.919596"
     inkscape:cx="17.453072"
     inkscape:cy="48.794915"
     inkscape:document-units="px"
     inkscape:current-layer="text8757"
     showgrid="false"
     inkscape:window-width="1920"
     inkscape:window-height="1178"
     inkscape:window-x="1920"
     inkscape:window-y="0"
     inkscape:window-maximized="1"
     showguides="true"
     inkscape:guide-bbox="true" />
  <metadata
     id="metadata7">
    <rdf:RDF>
      <cc:Work
         rdf:about="">
        <dc:format>image/svg+xml</dc:format>
        <dc:type
           rdf:resource="http://purl.org/dc/dcmitype/StillImage" />
        <dc:title />
      </cc:Work>
    </rdf:RDF>
  </metadata>
  <g
     inkscape:label="Layer 1"
     inkscape:groupmode="layer"
     id="layer1"
     transform="translate(0,-952.36218)">
    <g
       sodipodi:type="inkscape:box3d"
       style="fill:none;stroke:#000000;stroke-width:0.50000000000000000;stroke-linecap:round;stroke-linejoin:miter;stroke-miterlimit:4;stroke-opacity:1;stroke-dasharray:none;stroke-dashoffset:0;opacity:0.71698113"
       id="g3139"
       inkscape:perspectiveID="#perspective3017"
       inkscape:corner0="-0.23369865 : -0.00058071337 : 0 : 1"
       inkscape:corner7="-0.34871743 : -0.012607987 : 0.24117225 : 1">
      <path
         sodipodi:type="inkscape:box3dside"
         id="path3149"
         style="fill:none;stroke:#000000;stroke-opacity:1"
         inkscape:box3dsidetype="13"
         d="m 16.085659,1024.9155 47.454833,22.8301 28.580423,-38.5104 -39.357843,-12.96843 z" />
      <path
         sodipodi:type="inkscape:box3dside"
         id="path3141"
         style="fill:none;stroke:#000000;stroke-opacity:1"
         inkscape:box3dsidetype="6"
         d="m 16.085659,971.80437 0,53.11113 36.677413,-28.64873 0,-40.39719 z" />
      <path
         sodipodi:type="inkscape:box3dside"
         id="path3151"
         style="fill:none;stroke:#000000;stroke-opacity:1"
         inkscape:box3dsidetype="11"
         d="m 52.763072,955.86958 39.357843,7.76209 0,45.60353 -39.357843,-12.96843 z" />
      <path
         sodipodi:type="inkscape:box3dside"
         id="path3143"
         style="fill:none;stroke:#000000;stroke-opacity:1"
         inkscape:box3dsidetype="5"
         d="m 16.085659,971.80437 47.454833,13.45057 28.580423,-21.62327 -39.357843,-7.76209 z" />
      <path
         sodipodi:type="inkscape:box3dside"
         id="path3147"
         style="fill:none;stroke:#000000;stroke-opacity:1"
         inkscape:box3dsidetype="14"
         d="m 63.540492,985.25494 0,62.49066 28.580423,-38.5104 0,-45.60353 z" />
      <path
         sodipodi:type="inkscape:box3dside"
         id="path3145"
         style="fill:none;stroke:#000000;stroke-opacity:1"
         inkscape:box3dsidetype="3"
         d="m 16.085659,971.80437 47.454833,13.45057 0,62.49066 -47.454833,-22.8301 z" />
    </g>
    <path
       style="opacity:0.62735847000000000;fill:#cf9634;fill-opacity:1;stroke:#000000;stroke-width:0.5;stroke-linecap:butt;stroke-linejoin:miter;stroke-opacity:1;stroke-miterlimit:4;stroke-dasharray:0.5,0.5;stroke-dashoffset:0"
       d="m 36.870567,962.4586 42.426408,10.73287 1.010153,52.52793 -43.815368,-16.92 z"
       id="path5430"
       inkscape:connector-curvature="0"
       sodipodi:nodetypes="ccccc" />
    <path
       style="opacity:0.62735847000000000;fill:#cf9634;fill-opacity:1;stroke:#000000;stroke-width:0.5;stroke-linecap:butt;stroke-linejoin:miter;stroke-opacity:1;stroke-miterlimit:4;stroke-dasharray:0.5,0.5;stroke-dashoffset:0"
       d="m 30.809651,965.55216 43.56283,11.61676 0.883884,54.92718 -44.446714,-18.4353 z"
       id="path5430-2"
       inkscape:connector-curvature="0"
       sodipodi:nodetypes="ccccc" />
    <g
       transform="translate(-50.615552,-27.210049)"
       id="g8797">
      <path
         inkscape:connector-curvature="0"
         id="path7607"
         d="m 80.532527,991.82959 6.077313,-3.22308"
         style="fill:none;stroke:#000000;stroke-width:0.30499999999999999;stroke-linecap:butt;stroke-linejoin:miter;stroke-miterlimit:4;stroke-opacity:1;stroke-dasharray:none;marker-start:url(#Arrow1Mstart);marker-end:url(#Arrow2Mend)"
         sodipodi:nodetypes="cc" />
      <g
         transform="scale(1.0271382,0.97357883)"
         style="font-size:14.04557323px;font-style:normal;font-variant:normal;font-weight:normal;font-stretch:normal;line-height:125%;letter-spacing:0px;word-spacing:0px;fill:#000000;fill-opacity:1;stroke:none;font-family:IPAPMincho;-inkscape-font-specification:IPAPMincho"
         id="text8757">
        <path
           d="m 81.111478,1012.2466 c -0.0055,-0.01 -0.02469,-0.019 -0.05761,-0.041 -0.02469,-0.017 -0.0439,-0.032 -0.05761,-0.045 -0.702282,-0.5157 -1.053421,-0.9587 -1.053418,-1.3291 -3e-6,-0.2743 0.120701,-0.491 0.362113,-0.6502 0.172823,-0.1069 0.378568,-0.1604 0.617237,-0.1604 0.584313,0 1.164515,0.1879 1.740609,0.5637 0.18105,0.1207 0.271578,0.2387 0.271584,0.3539 -6e-6,0.1865 -0.09053,0.2798 -0.271584,0.2798 -0.104251,0 -0.218096,-0.062 -0.341538,-0.1852 -0.493795,-0.4663 -0.96701,-0.6995 -1.419646,-0.6995 -0.381319,0 -0.571976,0.1523 -0.571973,0.4568 -3e-6,0.2825 0.437549,0.6981 1.312658,1.2468 0.658381,0.4115 0.987574,0.945 0.987579,1.6007 -5e-6,0.6638 -0.18792,1.2413 -0.563743,1.7324 -0.419726,0.5459 -0.950549,0.8188 -1.592472,0.8188 -0.32371,0 -0.607638,-0.1097 -0.851787,-0.3292 -0.337425,-0.3017 -0.506137,-0.7036 -0.506134,-1.2056 -3e-6,-0.8532 0.359366,-1.5376 1.078107,-2.0534 0.246891,-0.1701 0.552766,-0.288 0.917626,-0.3539 m 0.135792,0.2428 c -0.502023,0 -0.925859,0.3265 -1.271508,0.9794 -0.203006,0.3785 -0.304507,0.7941 -0.304504,1.2468 -3e-6,0.8257 0.275696,1.2386 0.827098,1.2386 0.403257,0 0.768113,-0.2552 1.094567,-0.7654 0.309985,-0.4773 0.46498,-0.9807 0.464985,-1.5102 -5e-6,-0.4279 -0.112479,-0.7544 -0.337423,-0.9793 -0.139912,-0.1399 -0.29765,-0.2099 -0.473215,-0.2099"
           style="font-size:8.42734432px"
           id="path8899" />
      </g>
    </g>
  </g>
</svg>
