<?xml version="1.0" encoding="UTF-8" standalone="no"?>
<!-- Created with Inkscape (http://www.inkscape.org/) -->

<svg
   xmlns:dc="http://purl.org/dc/elements/1.1/"
   xmlns:cc="http://creativecommons.org/ns#"
   xmlns:rdf="http://www.w3.org/1999/02/22-rdf-syntax-ns#"
   xmlns:svg="http://www.w3.org/2000/svg"
   xmlns="http://www.w3.org/2000/svg"
   xmlns:sodipodi="http://sodipodi.sourceforge.net/DTD/sodipodi-0.dtd"
   xmlns:inkscape="http://www.inkscape.org/namespaces/inkscape"
   width="100"
   height="100"
   id="svg2"
   version="1.1"
   inkscape:version="0.48.5 r10040"
   sodipodi:docname="emptyCube_x.svg">
  <defs
     id="defs4">
    <marker
       inkscape:stockid="Arrow1Send"
       orient="auto"
       refY="0.0"
       refX="0.0"
       id="Arrow1Send"
       style="overflow:visible;">
      <path
         id="path3788"
         d="M 0.0,0.0 L 5.0,-5.0 L -12.5,0.0 L 5.0,5.0 L 0.0,0.0 z "
         style="fill-rule:evenodd;stroke:#000000;stroke-width:1.0pt;"
         transform="scale(0.2) rotate(180) translate(6,0)" />
    </marker>
    <marker
       inkscape:stockid="Arrow1Sstart"
       orient="auto"
       refY="0.0"
       refX="0.0"
       id="Arrow1Sstart"
       style="overflow:visible">
      <path
         id="path3785"
         d="M 0.0,0.0 L 5.0,-5.0 L -12.5,0.0 L 5.0,5.0 L 0.0,0.0 z "
         style="fill-rule:evenodd;stroke:#000000;stroke-width:1.0pt"
         transform="scale(0.2) translate(6,0)" />
    </marker>
    <marker
       inkscape:stockid="Arrow1Mstart"
       orient="auto"
       refY="0.0"
       refX="0.0"
       id="Arrow1Mstart"
       style="overflow:visible">
      <path
         id="path3779"
         d="M 0.0,0.0 L 5.0,-5.0 L -12.5,0.0 L 5.0,5.0 L 0.0,0.0 z "
         style="fill-rule:evenodd;stroke:#000000;stroke-width:1.0pt"
         transform="scale(0.4) translate(10,0)" />
    </marker>
    <inkscape:perspective
       sodipodi:type="inkscape:persp3d"
       inkscape:vp_x="-252.62268 : 156.72032 : 1"
       inkscape:vp_y="0 : 3383.9015 : 0"
       inkscape:vp_z="169.30198 : 147.12387 : 1"
       inkscape:persp3d-origin="-46.711117 : 100.32196 : 1"
       id="perspective3017" />
    <inkscape:perspective
       sodipodi:type="inkscape:persp3d"
       inkscape:vp_x="-252.44025 : 156.70147 : 1"
       inkscape:vp_y="0 : 3383.9015 : 0"
       inkscape:vp_z="169.48441 : 147.10502 : 1"
       inkscape:persp3d-origin="-46.528689 : 100.30311 : 1"
       id="perspective3017-7" />
  </defs>
  <sodipodi:namedview
     id="base"
     pagecolor="#ffffff"
     bordercolor="#666666"
     borderopacity="1.0"
     inkscape:pageopacity="0.0"
     inkscape:pageshadow="2"
     inkscape:zoom="5.6"
     inkscape:cx="20.638508"
     inkscape:cy="69.417196"
     inkscape:document-units="px"
     inkscape:current-layer="layer1"
     showgrid="false"
     inkscape:window-width="1920"
     inkscape:window-height="1178"
     inkscape:window-x="1920"
     inkscape:window-y="0"
     inkscape:window-maximized="1" />
  <metadata
     id="metadata7">
    <rdf:RDF>
      <cc:Work
         rdf:about="">
        <dc:format>image/svg+xml</dc:format>
        <dc:type
           rdf:resource="http://purl.org/dc/dcmitype/StillImage" />
        <dc:title />
      </cc:Work>
    </rdf:RDF>
  </metadata>
  <g
     inkscape:label="Layer 1"
     inkscape:groupmode="layer"
     id="layer1"
     transform="translate(0,-952.36218)">
    <path
       style="opacity:0.62735847000000000;fill:#cf9634;fill-opacity:1;stroke:#000000;stroke-width:0.5;stroke-linecap:butt;stroke-linejoin:miter;stroke-opacity:1;stroke-miterlimit:4;stroke-dasharray:0.5,0.5;stroke-dashoffset:0"
       d="m 39.395949,26.76394 33.335035,-19.6979741 0,43.4365591 -33.335035,33.840111 z"
       id="path5430"
       inkscape:connector-curvature="0"
       transform="translate(0,952.36218)"
       sodipodi:nodetypes="ccccc" />
    <path
       style="opacity:0.62735847000000000;fill:#cf9634;fill-opacity:1;stroke:#000000;stroke-width:0.5;stroke-linecap:butt;stroke-linejoin:miter;stroke-opacity:1;stroke-miterlimit:4;stroke-dasharray:0.5,0.5;stroke-dashoffset:0"
       d="m 46.189625,980.74322 31.727892,-20.41226 0,44.15084 -32.263606,34.733 z"
       id="path5430-1"
       inkscape:connector-curvature="0"
       sodipodi:nodetypes="ccccc" />
    <g
       sodipodi:type="inkscape:box3d"
       style="opacity:0.71698112;fill:none;stroke:#000000;stroke-width:0.5;stroke-linecap:round;stroke-linejoin:miter;stroke-miterlimit:4;stroke-opacity:1;stroke-dasharray:none;stroke-dashoffset:0"
       id="g3139"
       inkscape:perspectiveID="#perspective3017-7"
       inkscape:corner0="-0.23369865 : -0.00058071337 : 0 : 1"
       inkscape:corner7="-0.34871743 : -0.012607987 : 0.24117225 : 1">
      <path
         sodipodi:type="inkscape:box3dside"
         id="path3149"
         style="fill:none;stroke:#000000;stroke-opacity:1"
         inkscape:box3dsidetype="13"
         d="m 16.268086,1024.9343 47.454833,22.8302 28.580423,-38.5104 L 52.9455,996.28562 z" />
      <path
         sodipodi:type="inkscape:box3dside"
         id="path3141"
         style="fill:none;stroke:#000000;stroke-opacity:1"
         inkscape:box3dsidetype="6"
         d="m 16.268086,971.82322 0,53.11108 36.677414,-28.64868 0,-40.39719 z" />
      <path
         sodipodi:type="inkscape:box3dside"
         id="path3151"
         style="fill:none;stroke:#000000;stroke-opacity:1"
         inkscape:box3dsidetype="11"
         d="m 52.9455,955.88843 39.357842,7.76209 0,45.60358 L 52.9455,996.28562 z" />
      <path
         sodipodi:type="inkscape:box3dside"
         id="path3143"
         style="fill:none;stroke:#000000;stroke-opacity:1"
         inkscape:box3dsidetype="5"
         d="M 16.268086,971.82322 63.722919,985.27379 92.303342,963.65052 52.9455,955.88843 z" />
      <path
         sodipodi:type="inkscape:box3dside"
         id="path3147"
         style="fill:none;stroke:#000000;stroke-opacity:1"
         inkscape:box3dsidetype="14"
         d="m 63.722919,985.27379 0,62.49071 28.580423,-38.5104 0,-45.60358 z" />
      <path
         sodipodi:type="inkscape:box3dside"
         id="path3145"
         style="fill:none;stroke:#000000;stroke-opacity:1"
         inkscape:box3dsidetype="3"
         d="m 16.268086,971.82322 47.454833,13.45057 0,62.49071 -47.454833,-22.8302 z" />
    </g>
    <path
       style="fill:none;stroke:#000000;stroke-width:0.8;stroke-linecap:butt;stroke-linejoin:miter;stroke-opacity:1;marker-start:url(#Arrow1Sstart);marker-end:url(#Arrow1Send);stroke-miterlimit:4;stroke-dasharray:none"
       d="M 44.285714,88.392857 38.75,85"
       id="path9519"
       inkscape:connector-curvature="0"
       transform="translate(0,952.36218)" />
    <g
       transform="scale(1.0145776,0.98563184)"
       style="font-size:10.3904047px;font-style:normal;font-variant:normal;font-weight:normal;font-stretch:normal;line-height:125%;letter-spacing:0px;word-spacing:0px;fill:#000000;fill-opacity:1;stroke:none;font-family:IPAPMincho;-inkscape-font-specification:IPAPMincho"
       id="text10079">
      <path
         d="m 38.389152,1059.0296 c -0.0068,-0.01 -0.03045,-0.024 -0.07103,-0.051 -0.03045,-0.02 -0.05412,-0.039 -0.07103,-0.056 -0.865871,-0.6358 -1.298804,-1.1821 -1.2988,-1.6387 -4e-6,-0.3382 0.148817,-0.6054 0.446463,-0.8016 0.21308,-0.1319 0.466751,-0.1978 0.761015,-0.1978 0.720423,0 1.435777,0.2317 2.146066,0.695 0.223223,0.1488 0.334839,0.2943 0.334847,0.4363 -8e-6,0.23 -0.111624,0.345 -0.334847,0.345 -0.128535,0 -0.2689,-0.076 -0.421096,-0.2283 -0.608819,-0.575 -1.192264,-0.8625 -1.750337,-0.8625 -0.470143,0 -0.705212,0.1878 -0.705208,0.5632 -4e-6,0.3484 0.539471,0.8608 1.618427,1.5372 0.811744,0.5074 1.217619,1.1652 1.217626,1.9736 -7e-6,0.8185 -0.231694,1.5305 -0.695061,2.1359 -0.517497,0.6731 -1.17197,1.0096 -1.963421,1.0096 -0.399115,0 -0.749182,-0.1352 -1.050202,-0.4058 -0.416026,-0.3721 -0.624036,-0.8676 -0.624034,-1.4865 -2e-6,-1.0519 0.443078,-1.8958 1.329242,-2.5317 0.304402,-0.2097 0.681527,-0.3551 1.131377,-0.4363 m 0.167423,0.2993 c -0.618964,0 -1.141528,0.4025 -1.567693,1.2075 -0.250293,0.4668 -0.375438,0.9792 -0.375434,1.5373 -4e-6,1.018 0.339916,1.5271 1.019761,1.5271 0.497192,0 0.947037,-0.3146 1.349535,-0.9437 0.382193,-0.5885 0.573292,-1.2092 0.573299,-1.862 -7e-6,-0.5276 -0.13868,-0.9301 -0.416022,-1.2074 -0.172503,-0.1725 -0.366985,-0.2588 -0.583446,-0.2588"
         style=""
         id="path10084" />
    </g>
  </g>
</svg>
