<?xml version="1.0" encoding="UTF-8"?>
<!-- Created with Inkscape (http://www.inkscape.org/) -->
<svg id="svg2" width="36px" height="31px" version="1.1" xmlns="http://www.w3.org/2000/svg" xmlns:cc="http://creativecommons.org/ns#" xmlns:dc="http://purl.org/dc/elements/1.1/" xmlns:rdf="http://www.w3.org/1999/02/22-rdf-syntax-ns#" xmlns:xlink="http://www.w3.org/1999/xlink">
 <defs id="defs8">
  <marker id="TriangleOutM" overflow="visible" orient="auto">
   <path id="path3916" transform="scale(.4)" d="m5.77 0-8.65 5v-10l8.65 5z" fill-rule="evenodd" stroke="#000" stroke-width="1pt"/>
  </marker>
  <filter id="filter3815">
   <feGaussianBlur id="feGaussianBlur3817" stdDeviation="0.069119977"/>
  </filter>
  <filter id="filter3784">
   <feGaussianBlur id="feGaussianBlur3786" stdDeviation="0.10012024"/>
  </filter>
  <radialGradient id="radialGradient3022" cx="13.792" cy="20.623" r="6.9238" gradientTransform="matrix(1 0 0 1.0949 0 -1.9563)" gradientUnits="userSpaceOnUse">
   <stop id="stop3790" stop-color="#dfd4d4" stop-opacity=".69565" offset="0"/>
   <stop id="stop3792" stop-opacity="0" offset="1"/>
  </radialGradient>
  <linearGradient id="linearGradient3024" x1="3.5069" x2="12.781" y1="25.746" y2="25.746" gradientUnits="userSpaceOnUse">
   <stop id="stop3755" stop-color="#dedde8" offset="0"/>
   <stop id="stop3757" stop-opacity="0" offset="1"/>
  </linearGradient>
 </defs>
 <metadata id="metadata4">
  <rdf:RDF>
   <cc:Work rdf:about="">
    <dc:format>image/svg+xml</dc:format>
    <dc:type rdf:resource="http://purl.org/dc/dcmitype/StillImage"/>
    <dc:title/>
   </cc:Work>
  </rdf:RDF>
 </metadata>
 <g id="layer1">
  <path id="rect1363" d="m25.702 4.6056 0.968 1.7107h-11.836l0.839-1.7107h10.029zm3.394 2.1159v14.944h-22.988l-2e-4 -14.944 22.988 2e-4z" fill="#e4ff07" filter="url(#filter3784)" stroke="#000" stroke-width=".2"/>
  <g id="g3018" transform="translate(-3.2839 -1.4449)" stroke="#000">
   <path id="path3005" transform="translate(1.1822 -3.2839)" d="m19.309 20.623c0 3.4097-2.47 6.1737-5.5169 6.1737s-5.5169-2.7641-5.5169-6.1737 2.47-6.1737 5.5169-6.1737c3.0441 0 5.5129 2.7591 5.5169 6.1655" fill="url(#radialGradient3022)" stroke-width="2"/>
   <path id="path3775" d="m11.531 22.221-6.7744 7.0496z" fill="url(#linearGradient3024)" filter="url(#filter3815)" stroke-width="2.5"/>
  </g>
  <path id="path4581" d="m-38.093 4.7288a0.19703 0.39407 0 0 1-0.10965 0.3532l-0.08738-0.3532z" fill="none" opacity=".72642" stroke="#000" stroke-linejoin="round"/>
  <g id="g3011" transform="matrix(1.3301 0 0 1.2827 -9.7978 -9.1883)" fill="none">
   <path id="path2997" transform="matrix(.90951 0 0 .93017 19.02 16.954)" d="m9.7935 2.2376c3.2978-0.11771 6.0855 2.0196 6.2264 4.7738 0.14094 2.7542-2.4182 5.0824-5.716 5.2001-2.0023 0.071467-3.9141-0.69993-5.0916-2.0543" marker-end="url(#TriangleOutM)" opacity=".49528" stroke="#000" stroke-linejoin="round" stroke-width="1.0183"/>
   <g id="Page-1" transform="matrix(.34979 0 0 .32352 25.335 20.475)">
    <g id="Icons-Device" transform="translate(-44)" fill="#000" fill-opacity=".9">
     <g id="access-time" transform="translate(44)">
      <path id="Shape" d="m10 0c-5.5 0-10 4.5-10 10s4.5 10 10 10 10-4.5 10-10-4.5-10-10-10zm0 18c-4.4 0-8-3.6-8-8s3.6-8 8-8 8 3.6 8 8-3.6 8-8 8zm0.5-13h-1.5v6l5.2 3.2 0.8-1.3-4.5-2.7v-5.2z"/>
     </g>
    </g>
   </g>
  </g>
 </g>
</svg>
