<?xml version="1.0" encoding="UTF-8"?>
<!-- Created with Inkscape (http://www.inkscape.org/) -->
<svg id="svg2" width="36px" height="31px" version="1.1" xmlns="http://www.w3.org/2000/svg" xmlns:cc="http://creativecommons.org/ns#" xmlns:dc="http://purl.org/dc/elements/1.1/" xmlns:rdf="http://www.w3.org/1999/02/22-rdf-syntax-ns#" xmlns:xlink="http://www.w3.org/1999/xlink">
 <defs id="defs8">
  <filter id="filter3784-3" color-interpolation-filters="sRGB">
   <feGaussianBlur id="feGaussianBlur3786-6" stdDeviation="0.10012024"/>
  </filter>
  <filter id="filter3784-3-9" color-interpolation-filters="sRGB">
   <feGaussianBlur id="feGaussianBlur3786-6-36" stdDeviation="0.10012024"/>
  </filter>
  <filter id="filter3784-3-9-6" color-interpolation-filters="sRGB">
   <feGaussianBlur id="feGaussianBlur3786-6-36-2" stdDeviation="0.10012024"/>
  </filter>
 </defs>
 <metadata id="metadata4">
  <rdf:RDF>
   <cc:Work rdf:about="">
    <dc:format>image/svg+xml</dc:format>
    <dc:type rdf:resource="http://purl.org/dc/dcmitype/StillImage"/>
    <dc:title/>
   </cc:Work>
  </rdf:RDF>
 </metadata>
 <g id="layer1">
  <path id="rect1363-7" transform="matrix(.46109 0 0 .47754 -.76008 3.5461)" d="m25.702 4.6056 0.968 1.7107h-11.836l0.839-1.7107h10.029zm3.394 2.1159v14.944h-22.988l-2e-4 -14.944 22.988 2e-4z" fill="#e4ff07" filter="url(#filter3784-3)" stroke="#000" stroke-width=".2"/>
  <g id="g3169" fill-rule="evenodd">
   <path id="path3175" d="m19.845 18.812-3.2589 10.92-0.052164-25.739 3.2737-3.6179z" fill="#8686bf"/>
   <path id="path3171" d="m19.845 18.812-0.037366-18.437 0.85681-0.33702 0.038879 19.184z" fill="#353564"/>
   <path id="path3173" d="m19.845 18.812-3.2589 10.92 1.0305 1.2087 3.0867-11.719z" fill="#4d4d9f"/>
   <path id="path3179" d="m19.808 0.37501-3.2737 3.6179 1.0275-0.27027 3.103-3.6846z" fill="#afafde"/>
   <path id="path3177" d="m16.586 29.732-0.052164-25.739 1.0275-0.27027 0.055162 27.218z" fill="#d7d7ff"/>
   <path id="path3181" d="m20.703 19.222-3.0867 11.719-0.055162-27.218 3.103-3.6846z" fill="#e9e9ff"/>
  </g>
  <path id="path3258" d="m13.231 22.045 4.3717 0.045" fill="none" stroke="#000" stroke-dasharray="0.79181596, 0.79181596" stroke-width=".79182"/>
  <path id="rect1363-7-0" transform="matrix(.46109 0 0 .47754 -.82576 16.518)" d="m25.702 4.6056 0.968 1.7107h-11.836l0.839-1.7107h10.029zm3.394 2.1159v14.944h-22.988l-2e-4 -14.944 22.988 2e-4z" fill="#e4ff07" filter="url(#filter3784-3-9)" stroke="#000" stroke-width=".2"/>
  <path id="rect1363-7-0-6" transform="matrix(.46109 0 0 .47754 21.569 4.2855)" d="m25.702 4.6056 0.968 1.7107h-11.836l0.839-1.7107h10.029zm3.394 2.1159v14.944h-22.988l-2e-4 -14.944 22.988 2e-4z" fill="#e4ff07" filter="url(#filter3784-3-9-6)" stroke="#000" stroke-width=".2"/>
  <g id="g3030">
   <path id="path3256" d="m21.438 10.312v0.6875h0.71875l-0.03125-0.71875zm1.4062 0.6875 0.625-0.03125v-0.6875h-0.625zm-2.7812 0.03125 0.6875-0.03125v-0.6875h-0.71875zm-2.8125 0.03125h0.6875v-0.71875h-0.6875zm1.4062-0.03125h0.6875v-0.6875h-0.71875zm-4.2188-0.625v0.6875h0.71875l-0.03125-0.71875zm1.4062 0.65625h0.71875l-0.03125-0.6875h-0.6875zm-2.7812 0.0625 0.6875-0.03125v-0.6875h-0.71875z" color="#000000" style="block-progression:tb;text-indent:0;text-transform:none"/>
   <path id="path3036" d="m25.092 10.609-2.4042 1.4304-0.03526-2.7998 2.4394 1.3694z" fill-rule="evenodd" stroke="#000" stroke-width=".28pt"/>
  </g>
  <path id="path4500" d="m16.748 20.097c3.6123 3.678 3.8093 3.8093 3.8093 3.8093" fill="#982525" stroke="#f00" stroke-width="1px"/>
  <path id="path4502" d="m21.083 19.506-4.2034 4.8602z" fill="#982525" stroke="#ff0707" stroke-width="1px"/>
  <path id="path4506" d="m17.137 9.0332 1.2539 1.4397 2.6936-2.8794" fill="none" stroke="#0f0" stroke-width="1px"/>
 </g>
</svg>
