<?xml version="1.0" encoding="UTF-8" standalone="no"?>
<!-- Created with Inkscape (http://www.inkscape.org/) -->

<svg
   xmlns:dc="http://purl.org/dc/elements/1.1/"
   xmlns:cc="http://creativecommons.org/ns#"
   xmlns:rdf="http://www.w3.org/1999/02/22-rdf-syntax-ns#"
   xmlns:svg="http://www.w3.org/2000/svg"
   xmlns="http://www.w3.org/2000/svg"
   xmlns:sodipodi="http://sodipodi.sourceforge.net/DTD/sodipodi-0.dtd"
   xmlns:inkscape="http://www.inkscape.org/namespaces/inkscape"
   width="60px"
   height="60px"
   viewBox="0 0 60 60"
   version="1.1"
   id="SVGRoot"
   sodipodi:docname="nxtomomill.svg"
   inkscape:version="0.92.4 (5da689c313, 2019-01-14)">
  <defs
     id="defs815">
    <filter
       style="color-interpolation-filters:sRGB"
       id="filter3784-3">
      <feGaussianBlur
         id="feGaussianBlur3786-6"
         stdDeviation="0.10012024" />
    </filter>
    <filter
       style="color-interpolation-filters:sRGB"
       id="filter3784-3-7">
      <feGaussianBlur
         id="feGaussianBlur3786-6-5"
         stdDeviation="0.10012024" />
    </filter>
  </defs>
  <sodipodi:namedview
     id="base"
     pagecolor="#ffffff"
     bordercolor="#666666"
     borderopacity="1.0"
     inkscape:pageopacity="0.0"
     inkscape:pageshadow="2"
     inkscape:zoom="7.7781746"
     inkscape:cx="26.605247"
     inkscape:cy="25.624015"
     inkscape:document-units="px"
     inkscape:current-layer="layer1"
     showgrid="false"
     inkscape:window-width="1920"
     inkscape:window-height="1136"
     inkscape:window-x="0"
     inkscape:window-y="27"
     inkscape:window-maximized="1"
     inkscape:grid-bbox="true" />
  <metadata
     id="metadata818">
    <rdf:RDF>
      <cc:Work
         rdf:about="">
        <dc:format>image/svg+xml</dc:format>
        <dc:type
           rdf:resource="http://purl.org/dc/dcmitype/StillImage" />
        <dc:title />
      </cc:Work>
    </rdf:RDF>
  </metadata>
  <g
     inkscape:label="Layer 1"
     inkscape:groupmode="layer"
     id="layer1">
    <g
       transform="matrix(0.94575518,0,0,0.95102921,10.243638,8.3847359)"
       id="g1414">
      <path
         sodipodi:nodetypes="ccccccccccccc"
         inkscape:connector-curvature="0"
         id="path1371"
         d="m 8.4471183,29.0843 42.2690057,0.150097 0.139964,3.00195 -3.779017,-0.150098 -0.139964,15.910333 h 4.058944 l 0.139965,3.452242 H 8.5870813 L 8.4471183,47.396192 H 12.785991 L 12.506063,32.686639 8.4471183,32.536542 Z"
         style="fill:none;stroke:#000000;stroke-width:1.23683834px;stroke-linecap:butt;stroke-linejoin:miter;stroke-opacity:1" />
      <path
         inkscape:connector-curvature="0"
         id="rect1373"
         d="M 16.425045,33.222476 H 43.298056 V 47.246095 H 16.425045 Z"
         style="opacity:1;fill:none;fill-opacity:1;stroke:#000000;stroke-width:1.47029889;stroke-linecap:square;stroke-linejoin:miter;stroke-miterlimit:4;stroke-dasharray:none;stroke-dashoffset:0;stroke-opacity:1;paint-order:markers stroke fill" />
      <path
         inkscape:connector-curvature="0"
         id="path1375"
         d="m 28.605353,40.19569 a 0.62983618,0.67543865 0 0 1 0.685689,-0.601564 0.62983618,0.67543865 0 0 1 0.568309,0.72881 0.62983618,0.67543865 0 0 1 -0.673434,0.617277 0.62983618,0.67543865 0 0 1 -0.58283,-0.715497"
         style="opacity:1;fill:none;fill-opacity:1;stroke:#000000;stroke-width:1.40239942;stroke-linecap:square;stroke-linejoin:miter;stroke-miterlimit:4;stroke-dasharray:none;stroke-dashoffset:0;stroke-opacity:1;paint-order:markers stroke fill" />
      <path
         inkscape:connector-curvature="0"
         id="path1377"
         d="m 16.434391,28.576519 a 13.576469,12.025658 0 0 1 6.719603,-10.830226 13.576469,12.025658 0 0 1 13.950848,0.135712 13.576469,12.025658 0 0 1 6.449457,10.958333"
         style="opacity:1;fill:none;fill-opacity:1;stroke:#000000;stroke-width:1.25842679;stroke-linecap:square;stroke-linejoin:miter;stroke-miterlimit:4;stroke-dasharray:none;stroke-dashoffset:0;stroke-opacity:1;paint-order:markers stroke fill" />
      <path
         sodipodi:nodetypes="ccc"
         inkscape:connector-curvature="0"
         id="path1379"
         d="M 29.161731,16.025819 V 11.522896 L 45.183796,11.416761"
         style="fill:none;stroke:#000000;stroke-width:1.23683834px;stroke-linecap:butt;stroke-linejoin:miter;stroke-opacity:1" />
      <path
         inkscape:connector-curvature="0"
         id="path1381"
         d="M 52.051611,8.3760137 A 1.6722079,5.040687 67.707228 0 1 48.960205,10.3603 1.6722079,5.040687 67.707228 0 1 45.183794,11.416762"
         style="opacity:1;fill:none;fill-opacity:1;stroke:#000000;stroke-width:1.21541286;stroke-linecap:square;stroke-linejoin:miter;stroke-miterlimit:4;stroke-dasharray:none;stroke-dashoffset:0;stroke-opacity:1;paint-order:markers stroke fill" />
    </g>
    <g
       id="g1585"
       transform="translate(-2.8703592,-3.4521237)">
      <path
         transform="matrix(1.5517415,0,0,1.6998733,-5.6465133,-11.264387)"
         d="m 25.767931,9.4067963 0.968,1.7106997 h -11.836 l 0.839,-1.7106997 z m 3.394,2.1158997 v 14.944 H 6.173932 l -2e-4,-14.944 22.987999,2e-4 z"
         id="rect1363-59"
         style="fill:#e4ff07;stroke:#000000;stroke-width:0.2;stroke-opacity:1;filter:url(#filter3784-3-7)"
         inkscape:connector-curvature="0" />
      <g
         style="opacity:0.6"
         id="g1576">
        <g
           aria-label="bliss"
           style="font-style:normal;font-weight:normal;font-size:40px;line-height:1.25;font-family:sans-serif;letter-spacing:0px;word-spacing:0px;fill:#000000;fill-opacity:1;stroke:none"
           id="text1524">
          <path
             d="m 11.80151,16.554115 q 0,-1.321615 -0.546875,-2.070313 -0.540364,-0.755208 -1.4908851,-0.755208 -0.9505208,0 -1.4973958,0.755208 -0.5403646,0.748698 -0.5403646,2.070313 0,1.321614 0.5403646,2.076823 0.546875,0.748697 1.4973958,0.748697 0.9505211,0 1.4908851,-0.748697 0.546875,-0.755209 0.546875,-2.076823 z M 7.7259895,14.008542 Q 8.1035937,13.3575 8.6765103,13.045 q 0.5794271,-0.31901 1.3802087,-0.31901 1.328125,0 2.154948,1.054687 0.833333,1.054688 0.833333,2.773438 0,1.71875 -0.833333,2.773437 -0.826823,1.054688 -2.154948,1.054688 -0.8007816,0 -1.3802087,-0.3125 -0.5729166,-0.319011 -0.9505208,-0.970052 v 1.09375 H 6.5215625 V 10.063229 h 1.204427 z"
             style="font-size:13.33333302px;line-height:0px;letter-spacing:-0.06px;word-spacing:-0.04px"
             id="path834" />
          <path
             d="m 14.970676,10.063229 h 1.197917 v 10.130209 h -1.197917 z"
             style="font-size:13.33333302px;line-height:0px;letter-spacing:-0.06px;word-spacing:-0.04px"
             id="path836" />
          <path
             d="m 18.608593,12.901771 h 1.197916 v 7.291667 h -1.197916 z m 0,-2.838542 h 1.197916 v 1.516927 h -1.197916 z"
             style="font-size:13.33333302px;line-height:0px;letter-spacing:-0.06px;word-spacing:-0.04px"
             id="path838" />
          <path
             d="m 26.894947,13.116615 v 1.132812 q -0.507813,-0.260416 -1.054688,-0.390625 -0.546875,-0.130208 -1.132812,-0.130208 -0.891927,0 -1.341146,0.273437 -0.442708,0.273438 -0.442708,0.820313 0,0.416667 0.31901,0.657552 0.31901,0.234375 1.282552,0.449219 l 0.410156,0.09115 q 1.276042,0.273437 1.809896,0.774739 0.540365,0.494792 0.540365,1.386719 0,1.015625 -0.807292,1.608073 -0.800781,0.592448 -2.207031,0.592448 -0.585938,0 -1.223959,-0.117188 -0.63151,-0.110677 -1.334635,-0.338542 v -1.236979 q 0.664063,0.345052 1.308594,0.520834 0.644531,0.16927 1.276041,0.16927 0.846355,0 1.302084,-0.286458 0.455729,-0.292969 0.455729,-0.820312 0,-0.488282 -0.332031,-0.748698 -0.325521,-0.260417 -1.438802,-0.501302 l -0.416667,-0.09766 q -1.113281,-0.234375 -1.608073,-0.716145 -0.494792,-0.488282 -0.494792,-1.334636 0,-1.028646 0.729167,-1.588541 0.729167,-0.559896 2.070312,-0.559896 0.664063,0 1.25,0.09766 0.585938,0.09766 1.08073,0.292969 z"
             style="font-size:13.33333302px;line-height:0px;letter-spacing:-0.06px;word-spacing:-0.04px"
             id="path840" />
          <path
             d="m 33.788071,13.116615 v 1.132812 q -0.507812,-0.260416 -1.054687,-0.390625 -0.546875,-0.130208 -1.132813,-0.130208 -0.891927,0 -1.341146,0.273437 -0.442708,0.273438 -0.442708,0.820313 0,0.416667 0.319011,0.657552 0.31901,0.234375 1.282552,0.449219 l 0.410156,0.09115 q 1.276041,0.273437 1.809896,0.774739 0.540364,0.494792 0.540364,1.386719 0,1.015625 -0.807291,1.608073 -0.800782,0.592448 -2.207032,0.592448 -0.585937,0 -1.223958,-0.117188 -0.63151,-0.110677 -1.334635,-0.338542 v -1.236979 q 0.664062,0.345052 1.308593,0.520834 0.644532,0.16927 1.276042,0.16927 0.846354,0 1.302083,-0.286458 0.455729,-0.292969 0.455729,-0.820312 0,-0.488282 -0.332031,-0.748698 -0.325521,-0.260417 -1.438802,-0.501302 l -0.416667,-0.09766 q -1.113281,-0.234375 -1.608072,-0.716145 -0.494792,-0.488282 -0.494792,-1.334636 0,-1.028646 0.729167,-1.588541 0.729166,-0.559896 2.070312,-0.559896 0.664063,0 1.25,0.09766 0.585938,0.09766 1.080729,0.292969 z"
             style="font-size:13.33333302px;line-height:0px;letter-spacing:-0.06px;word-spacing:-0.04px"
             id="path842" />
        </g>
        <g
           aria-label="HDF5"
           style="font-style:normal;font-weight:normal;font-size:40px;line-height:1.25;font-family:sans-serif;letter-spacing:0px;word-spacing:0px;fill:#000000;fill-opacity:1;stroke:none"
           id="text1536">
          <path
             d="m 4.5084469,22.099535 h 1.3414063 v 4.064063 h 4.8742188 v -4.064063 h 1.341406 v 9.914453 H 10.724072 V 27.292504 H 5.8498532 v 4.721484 H 4.5084469 Z"
             style="font-size:13.60000038px"
             id="path845" />
          <path
             d="m 16.076416,23.201879 v 7.709766 h 1.620312 q 2.051953,0 3.001563,-0.929688 0.95625,-0.929687 0.95625,-2.935156 0,-1.992188 -0.95625,-2.915235 -0.94961,-0.929687 -3.001563,-0.929687 z m -1.341407,-1.102344 h 2.75586 q 2.882031,0 4.230078,1.201953 1.348047,1.195313 1.348047,3.745313 0,2.563281 -1.354688,3.765234 -1.354687,1.201953 -4.223437,1.201953 h -2.75586 z"
             style="font-size:13.60000038px"
             id="path847" />
          <path
             d="m 25.200635,22.099535 h 5.697657 v 1.128906 h -4.356251 v 2.921875 h 3.931251 v 1.128907 h -3.931251 v 4.734765 h -1.341406 z"
             style="font-size:13.60000038px"
             id="path849" />
          <path
             d="m 33.169385,22.099535 h 5.266016 v 1.128906 h -4.0375 v 2.430469 q 0.292187,-0.09961 0.584375,-0.146094 0.292187,-0.05313 0.584375,-0.05313 1.660156,0 2.629687,0.909766 0.969532,0.909766 0.969532,2.463672 0,1.600391 -0.996094,2.490234 -0.996094,0.883204 -2.808985,0.883204 -0.624218,0 -1.275,-0.10625 -0.64414,-0.10625 -1.334765,-0.31875 V 30.43352 q 0.597656,0.32539 1.235156,0.484765 0.6375,0.159375 1.348047,0.159375 1.148828,0 1.819531,-0.604297 0.670703,-0.604296 0.670703,-1.640234 0,-1.035937 -0.670703,-1.640234 -0.670703,-0.604297 -1.819531,-0.604297 -0.537891,0 -1.075781,0.119531 -0.53125,0.119531 -1.089063,0.371875 z"
             style="font-size:13.60000038px"
             id="path851" />
        </g>
      </g>
    </g>
  </g>
</svg>
