<?xml version="1.0" encoding="UTF-8"?>
<!-- Created with Inkscape (http://www.inkscape.org/) -->
<svg id="svg2" width="36" height="36" version="1.1" xmlns="http://www.w3.org/2000/svg" xmlns:cc="http://creativecommons.org/ns#" xmlns:dc="http://purl.org/dc/elements/1.1/" xmlns:rdf="http://www.w3.org/1999/02/22-rdf-syntax-ns#">
 <metadata id="metadata7">
  <rdf:RDF>
   <cc:Work rdf:about="">
    <dc:format>image/svg+xml</dc:format>
    <dc:type rdf:resource="http://purl.org/dc/dcmitype/StillImage"/>
    <dc:title/>
   </cc:Work>
  </rdf:RDF>
 </metadata>
 <g id="layer1" transform="translate(0 -1016.4)" stroke="#000" stroke-linejoin="round">
  <rect id="rect2985" x="2.903" y="1035.5" width="30.819" height="4.6948" fill="#fff" stroke-width=".68937"/>
  <rect id="rect4236" x="2.6916" y="1035.5" width="5.1081" height="4.6849" fill="#dfdc24" stroke-width=".83074"/>
  <rect id="rect4236-7" x="7.7478" y="1035.5" width="5.1081" height="4.6849" fill="#dfdc24" stroke-width=".83074"/>
  <rect id="rect4236-6" x="12.951" y="1035.5" width="5.1081" height="4.6849" fill="#dfdc24" stroke-width=".83074"/>
  <rect id="rect4236-3" x="17.921" y="1035.5" width="5.1081" height="4.6849" fill="#dfdc24" stroke-width=".83074"/>
  <rect id="rect2985-2" x="2.9634" y="1041.6" width="30.533" height="4.6948" fill="#fff" stroke-width=".68617"/>
  <rect id="rect4236-5" x="2.752" y="1041.6" width="5.1081" height="4.6849" fill="#36b031" stroke-width=".83074"/>
  <rect id="rect4236-7-1" x="7.8082" y="1041.6" width="5.1081" height="4.6849" fill="#36b031" stroke-width=".83074"/>
  <rect id="rect4236-6-7" x="13.011" y="1041.6" width="5.1081" height="4.6849" fill="#36b031" stroke-width=".83074"/>
  <rect id="rect4236-3-9" x="17.981" y="1041.6" width="5.1081" height="4.6849" fill="#36b031" stroke-width=".83074"/>
  <rect id="rect4236-9-4" x="23.184" y="1041.6" width="5.1081" height="4.6849" fill="#36b031" stroke-width=".83074"/>
  <rect id="rect2985-9" x="3.0411" y="1023.4" width="30.586" height="4.6948" fill="#fb4040" stroke-width=".68677"/>
  <rect id="rect4236-9-4-0" x="28.404" y="1041.6" width="5.1081" height="4.6849" fill="#36b031" stroke-width=".83074"/>
  <rect id="rect2985-5" x="3.0462" y="1029.5" width="30.819" height="4.6948" fill="#fff" stroke-width=".68937"/>
  <rect id="rect4236-6-6" x="3.2539" y="1029.4" width="5.1081" height="4.6849" fill="#df7324" stroke-width=".83074"/>
  <rect id="rect4236-3-6" x="8.2238" y="1029.4" width="5.1081" height="4.6849" fill="#df7324" stroke-width=".83074"/>
 </g>
</svg>
