<?xml version="1.0" encoding="UTF-8"?>
<!-- Created with Inkscape (http://www.inkscape.org/) -->
<svg id="svg2" width="36px" height="31px" version="1.1" xmlns="http://www.w3.org/2000/svg" xmlns:cc="http://creativecommons.org/ns#" xmlns:dc="http://purl.org/dc/elements/1.1/" xmlns:rdf="http://www.w3.org/1999/02/22-rdf-syntax-ns#" xmlns:xlink="http://www.w3.org/1999/xlink">
 <defs id="defs8">
  <filter id="filter3784">
   <feGaussianBlur id="feGaussianBlur3786" stdDeviation="0.10012024"/>
  </filter>
  <filter id="filter3784-4" color-interpolation-filters="sRGB">
   <feGaussianBlur id="feGaussianBlur3786-8" stdDeviation="0.10012024"/>
  </filter>
  <filter id="filter3784-3" color-interpolation-filters="sRGB">
   <feGaussianBlur id="feGaussianBlur3786-6" stdDeviation="0.10012024"/>
  </filter>
  <radialGradient id="radialGradient3055-6" cx="13.792" cy="20.623" r="6.9238" gradientTransform="matrix(1 0 0 1.0949 0 -1.9563)" gradientUnits="userSpaceOnUse">
   <stop id="stop3790-7" stop-color="#dfd4d4" stop-opacity=".69565" offset="0"/>
   <stop id="stop3792-2" stop-opacity="0" offset="1"/>
  </radialGradient>
  <filter id="filter3815-6" color-interpolation-filters="sRGB">
   <feGaussianBlur id="feGaussianBlur3817-0" stdDeviation="0.069119977"/>
  </filter>
  <linearGradient id="linearGradient3082" x1="3.5069" x2="12.781" y1="25.746" y2="25.746" gradientUnits="userSpaceOnUse">
   <stop id="stop3755-0" stop-color="#dedde8" offset="0"/>
   <stop id="stop3757-7" stop-opacity="0" offset="1"/>
  </linearGradient>
 </defs>
 <metadata id="metadata4">
  <rdf:RDF>
   <cc:Work rdf:about="">
    <dc:format>image/svg+xml</dc:format>
    <dc:type rdf:resource="http://purl.org/dc/dcmitype/StillImage"/>
    <dc:title/>
   </cc:Work>
  </rdf:RDF>
 </metadata>
 <g id="layer1" stroke="#000">
  <path id="rect1363" d="m24.782 1.4531 0.968 1.7107h-11.836l0.839-1.7107h10.029zm3.394 2.1159v14.944h-22.988l-2e-4 -14.944 22.988 2e-4z" fill="#e4ff07" filter="url(#filter3784)" stroke-width=".2"/>
  <path id="rect1363-5" d="m28.329 4.737 0.968 1.7107h-11.836l0.839-1.7107h10.029zm3.394 2.1159v14.944h-22.988l-2e-4 -14.944 22.988 2e-4z" fill="#e4ff07" filter="url(#filter3784-4)" stroke-width=".2"/>
  <path id="rect1363-59" d="m31.219 8.6777 0.968 1.7107h-11.836l0.839-1.7107h10.029zm3.394 2.1159v14.944h-22.988l-2e-4 -14.944 22.988 2e-4z" fill="#e4ff07" filter="url(#filter3784-3)" stroke-width=".2"/>
  <g id="g3051" transform="translate(11.622 1.2479)">
   <path id="path3005" transform="translate(1.1822 -3.2839)" d="m19.309 20.623c0 3.4097-2.47 6.1737-5.5169 6.1737s-5.5169-2.7641-5.5169-6.1737 2.47-6.1737 5.5169-6.1737c3.0441 0 5.5129 2.7591 5.5169 6.1655" fill="url(#radialGradient3055-6)" stroke-width="2"/>
   <path id="path3775" d="m11.531 22.221-6.7744 7.0496z" fill="url(#linearGradient3082)" filter="url(#filter3815-6)" stroke-width="2.5"/>
  </g>
 </g>
</svg>
