<?xml version="1.0" encoding="UTF-8"?>
<!-- Created with Inkscape (http://www.inkscape.org/) -->
<svg id="svg2" width="36px" height="31px" version="1.1" xmlns="http://www.w3.org/2000/svg" xmlns:cc="http://creativecommons.org/ns#" xmlns:dc="http://purl.org/dc/elements/1.1/" xmlns:rdf="http://www.w3.org/1999/02/22-rdf-syntax-ns#" xmlns:xlink="http://www.w3.org/1999/xlink">
 <defs id="defs8">
  <filter id="filter3784">
   <feGaussianBlur id="feGaussianBlur3786" stdDeviation="0.10012024"/>
  </filter>
  <filter id="filter3784-4" color-interpolation-filters="sRGB">
   <feGaussianBlur id="feGaussianBlur3786-8" stdDeviation="0.10012024"/>
  </filter>
  <filter id="filter3784-3" color-interpolation-filters="sRGB">
   <feGaussianBlur id="feGaussianBlur3786-6" stdDeviation="0.10012024"/>
  </filter>
 </defs>
 <metadata id="metadata4">
  <rdf:RDF>
   <cc:Work rdf:about="">
    <dc:format>image/svg+xml</dc:format>
    <dc:type rdf:resource="http://purl.org/dc/dcmitype/StillImage"/>
    <dc:title/>
   </cc:Work>
  </rdf:RDF>
 </metadata>
 <g id="layer1">
  <path id="rect1363" d="m24.782 1.4531 0.968 1.7107h-11.836l0.839-1.7107h10.029zm3.394 2.1159v14.944h-22.988l-2e-4 -14.944 22.988 2e-4z" fill="#e4ff07" filter="url(#filter3784)" opacity=".5" stroke="#000" stroke-width=".2"/>
  <path id="rect1363-5" d="m28.329 4.737 0.968 1.7107h-11.836l0.839-1.7107h10.029zm3.394 2.1159v14.944h-22.988l-2e-4 -14.944 22.988 2e-4z" fill="#e4ff07" filter="url(#filter3784-4)" stroke="#a10000" stroke-width=".5"/>
  <path id="rect1363-59" d="m31.219 8.6777 0.968 1.7107h-11.836l0.839-1.7107h10.029zm3.394 2.1159v14.944h-22.988l-2e-4 -14.944 22.988 2e-4z" fill="#e4ff07" filter="url(#filter3784-3)" opacity=".5" stroke="#000" stroke-width=".2"/>
  <g id="g3836">
   <path id="path3017" d="m9.0312 16.281-8.0312 8.6562 0.875 0.8125 8.0312-8.6562-0.875-0.8125z" color="#000000" style="block-progression:tb;text-indent:0;text-transform:none"/>
   <path id="path3842" d="m3.0641 19.321 7.4638-3.8136-3.215 7.7405c-0.40121-2.0821-2.1221-3.6628-4.2488-3.9269z" fill-rule="evenodd" stroke-linejoin="round" stroke-width=".625"/>
  </g>
 </g>
</svg>
