<?xml version="1.0" encoding="UTF-8" standalone="no"?>
<!-- Created with Inkscape (http://www.inkscape.org/) -->

<svg
   xmlns:dc="http://purl.org/dc/elements/1.1/"
   xmlns:cc="http://creativecommons.org/ns#"
   xmlns:rdf="http://www.w3.org/1999/02/22-rdf-syntax-ns#"
   xmlns:svg="http://www.w3.org/2000/svg"
   xmlns="http://www.w3.org/2000/svg"
   xmlns:sodipodi="http://sodipodi.sourceforge.net/DTD/sodipodi-0.dtd"
   xmlns:inkscape="http://www.inkscape.org/namespaces/inkscape"
   width="48"
   height="48"
   viewBox="0 0 12.7 12.7"
   version="1.1"
   id="svg8"
   inkscape:version="0.92.4 (5da689c313, 2019-01-14)"
   sodipodi:docname="image_key_editor.svg"
   inkscape:export-filename="/home/payno/dev/tomo/tomwer/orangecontrib/tomwer/widgets/control/icons/image_key_editorpng.png"
   inkscape:export-xdpi="59.900002"
   inkscape:export-ydpi="59.900002">
  <defs
     id="defs2" />
  <sodipodi:namedview
     id="base"
     pagecolor="#ffffff"
     bordercolor="#666666"
     borderopacity="1.0"
     inkscape:pageopacity="0.0"
     inkscape:pageshadow="2"
     inkscape:zoom="5.6"
     inkscape:cx="-35.656161"
     inkscape:cy="49.441716"
     inkscape:document-units="mm"
     inkscape:current-layer="text817"
     showgrid="false"
     units="px"
     inkscape:window-width="1920"
     inkscape:window-height="1043"
     inkscape:window-x="1920"
     inkscape:window-y="0"
     inkscape:window-maximized="1" />
  <metadata
     id="metadata5">
    <rdf:RDF>
      <cc:Work
         rdf:about="">
        <dc:format>image/svg+xml</dc:format>
        <dc:type
           rdf:resource="http://purl.org/dc/dcmitype/StillImage" />
        <dc:title />
      </cc:Work>
    </rdf:RDF>
  </metadata>
  <g
     inkscape:label="Layer 1"
     inkscape:groupmode="layer"
     id="layer1"
     transform="translate(0,-284.3)">
    <g
       aria-label="IMG
Key"
       transform="scale(1.0436306,0.95819348)"
       style="font-style:normal;font-variant:normal;font-weight:normal;font-stretch:normal;font-size:7.9011445px;line-height:1.25;font-family:sans-serif;-inkscape-font-specification:sans-serif;letter-spacing:0px;word-spacing:0px;opacity:0.48900003;fill:#000000;fill-opacity:1;stroke:none;stroke-width:0.19752862"
       id="text817">
      <path
         d="m 0.56165994,301.79218 h 0.38965605 v 2.87998 H 0.56165994 Z"
         style="font-style:normal;font-variant:normal;font-weight:normal;font-stretch:normal;font-size:3.95057225px;line-height:1;font-family:'DejaVu Sans';-inkscape-font-specification:'DejaVu Sans';stroke-width:0.19752862"
         id="path1493" />
      <path
         d="m 1.7267702,301.79218 h 0.5806261 l 0.7349453,1.95986 0.7388033,-1.95986 H 4.361771 v 2.87998 H 3.9817599 v -2.5289 l -0.7426613,1.97528 h -0.391585 l -0.7426613,-1.97528 v 2.5289 H 1.7267702 Z"
         style="font-style:normal;font-variant:normal;font-weight:normal;font-stretch:normal;font-size:3.95057225px;line-height:1;font-family:'DejaVu Sans';-inkscape-font-specification:'DejaVu Sans';stroke-width:0.19752862"
         id="path1495" />
      <path
         d="m 7.1009375,304.26129 v -0.77353 H 6.4643706 v -0.32021 h 1.0223649 v 1.23648 q -0.2256918,0.16011 -0.4976795,0.24306 -0.2719876,0.081 -0.5806261,0.081 -0.6751466,0 -1.0570867,-0.39352 -0.3800111,-0.39544 -0.3800111,-1.09952 0,-0.70601 0.3800111,-1.09953 0.3819401,-0.39544 1.0570867,-0.39544 0.2816326,0 0.5343304,0.0694 0.2546267,0.0694 0.4687446,0.20448 v 0.41473 q -0.2160469,-0.18326 -0.4590997,-0.27585 -0.2430528,-0.0926 -0.5111824,-0.0926 -0.5285434,0 -0.7947441,0.29514 -0.2642716,0.29513 -0.2642716,0.87962 0,0.58255 0.2642716,0.87769 0.2662007,0.29513 0.7947441,0.29513 0.2064019,0 0.3684371,-0.0347 0.1620352,-0.0367 0.2912776,-0.11188 z"
         style="font-style:normal;font-variant:normal;font-weight:normal;font-stretch:normal;font-size:3.95057225px;line-height:1;font-family:'DejaVu Sans';-inkscape-font-specification:'DejaVu Sans';stroke-width:0.19752862"
         id="path1497" />
      <path
         d="m 0.56165994,305.69609 h 0.38965605 v 1.2172 l 1.29242351,-1.2172 H 2.745277 l -1.4293818,1.34258 1.5316183,1.53741 H 2.3344021 l -1.38308611,-1.38695 v 1.38695 H 0.56165994 Z"
         style="font-style:normal;font-variant:normal;font-weight:normal;font-stretch:normal;font-size:3.95057225px;line-height:1;font-family:'DejaVu Sans';-inkscape-font-specification:'DejaVu Sans';stroke-width:0.19752862"
         id="path1499" />
      <path
         d="m 4.7938647,307.40711 v 0.17361 H 3.1619389 q 0.023148,0.36651 0.2199049,0.5594 0.198686,0.19097 0.5516912,0.19097 0.204473,0 0.395443,-0.0502 0.1928991,-0.0501 0.3819401,-0.15046 v 0.33564 q -0.19097,0.081 -0.391585,0.12346 -0.200615,0.0424 -0.407017,0.0424 -0.5169694,0 -0.8198209,-0.30093 -0.3009225,-0.30092 -0.3009225,-0.81403 0,-0.53047 0.2854906,-0.84104 0.2874196,-0.3125 0.7735251,-0.3125 0.4359518,0 0.6886496,0.28164 0.2546267,0.2797 0.2546267,0.76195 z m -0.3549342,-0.10417 q -0.00386,-0.29127 -0.1639642,-0.46488 -0.1581772,-0.17361 -0.4205199,-0.17361 -0.2970645,0 -0.4764606,0.16782 -0.1774671,0.16782 -0.204473,0.4726 z"
         style="font-style:normal;font-variant:normal;font-weight:normal;font-stretch:normal;font-size:3.95057225px;line-height:1;font-family:'DejaVu Sans';-inkscape-font-specification:'DejaVu Sans';stroke-width:0.19752862"
         id="path1501" />
      <path
         d="m 6.2753291,308.77669 q -0.1504612,0.3858 -0.2932065,0.50347 -0.1427453,0.11767 -0.3819401,0.11767 H 5.3166209 v -0.29707 h 0.208331 q 0.1466033,0 0.2276209,-0.0694 0.081017,-0.0695 0.1793961,-0.32793 l 0.063657,-0.16204 -0.8738326,-2.12574 H 5.497946 l 0.6751466,1.68979 0.6751467,-1.68979 h 0.3761531 z"
         style="font-style:normal;font-variant:normal;font-weight:normal;font-stretch:normal;font-size:3.95057225px;line-height:1;font-family:'DejaVu Sans';-inkscape-font-specification:'DejaVu Sans';stroke-width:0.19752862"
         id="path1503" />
    </g>
    <g
       id="g872"
       transform="matrix(1.7008748,0,0,1.3956141,5.0868548,-100.74748)">
      <g
         id="g877"
         transform="matrix(0.69394884,-0.91617956,0.56586616,0.69394884,-154.75708,81.317197)"
         inkscape:transform-center-x="6.3041843"
         inkscape:transform-center-y="-5.6562159">
        <rect
           style="fill:#d1b2b2;fill-opacity:1;stroke:#000000;stroke-width:0.23376343;stroke-linecap:round;stroke-linejoin:round;stroke-miterlimit:4;stroke-dasharray:none;stroke-opacity:1;paint-order:stroke fill markers"
           id="rect825"
           width="3.7308216"
           height="0.62381279"
           x="-4.3877668"
           y="281.05283" />
        <path
           style="fill:none;stroke:#000000;stroke-width:0.16898561;stroke-linecap:butt;stroke-linejoin:round;stroke-miterlimit:4;stroke-dasharray:none;stroke-opacity:1"
           d="m -4.3877668,281.67664 c -0.2793163,0.009 -0.5577288,-0.0435 -0.8324456,-0.35142 0.2750181,-0.18258 0.5523208,-0.28005 0.8324456,-0.27239"
           id="path827"
           inkscape:connector-curvature="0"
           sodipodi:nodetypes="ccc" />
        <path
           style="fill:none;stroke:#000000;stroke-width:0.2;stroke-linecap:butt;stroke-linejoin:miter;stroke-miterlimit:4;stroke-dasharray:none;stroke-opacity:1"
           d="m -1.110839,281.0557 0.00835,0.60971"
           id="path848"
           inkscape:connector-curvature="0" />
      </g>
    </g>
  </g>
</svg>
