<?xml version="1.0" encoding="UTF-8" standalone="no"?>
<!-- Created with Inkscape (http://www.inkscape.org/) -->

<svg
   xmlns:dc="http://purl.org/dc/elements/1.1/"
   xmlns:cc="http://creativecommons.org/ns#"
   xmlns:rdf="http://www.w3.org/1999/02/22-rdf-syntax-ns#"
   xmlns:svg="http://www.w3.org/2000/svg"
   xmlns="http://www.w3.org/2000/svg"
   xmlns:sodipodi="http://sodipodi.sourceforge.net/DTD/sodipodi-0.dtd"
   xmlns:inkscape="http://www.inkscape.org/namespaces/inkscape"
   width="60px"
   height="60px"
   viewBox="0 0 60 60"
   version="1.1"
   id="SVGRoot"
   inkscape:version="0.92.4 (5da689c313, 2019-01-14)"
   sodipodi:docname="advanced_user.svg">
  <defs
     id="defs1997" />
  <sodipodi:namedview
     id="base"
     pagecolor="#ffffff"
     bordercolor="#666666"
     borderopacity="1.0"
     inkscape:pageopacity="0.0"
     inkscape:pageshadow="2"
     inkscape:zoom="6.0339779"
     inkscape:cx="-22.112181"
     inkscape:cy="25.317125"
     inkscape:document-units="px"
     inkscape:current-layer="layer1"
     showgrid="false"
     inkscape:window-width="1920"
     inkscape:window-height="1136"
     inkscape:window-x="0"
     inkscape:window-y="27"
     inkscape:window-maximized="1"
     inkscape:grid-bbox="true" />
  <metadata
     id="metadata2000">
    <rdf:RDF>
      <cc:Work
         rdf:about="">
        <dc:format>image/svg+xml</dc:format>
        <dc:type
           rdf:resource="http://purl.org/dc/dcmitype/StillImage" />
        <dc:title />
      </cc:Work>
    </rdf:RDF>
  </metadata>
  <g
     inkscape:label="Layer 1"
     inkscape:groupmode="layer"
     id="layer1">
    <g
       id="surface1"
       transform="matrix(0.91430392,0,0,0.88285849,-0.19269796,-0.01144441)"
       inkscape:export-filename="/nobackup/linazimov/payno/dev/esrf/ID06/id06workflow/resources/gui/icons/parameters.png"
       inkscape:export-xdpi="200"
       inkscape:export-ydpi="200">
      <path
         id="path3157"
         d="M 40.25,0 C 39.902344,-0.0117188 39.566406,0.15625 39.375,0.46875 L 37.78125,3.0625 c -0.539062,-0.042969 -1.058594,-0.046875 -1.59375,0 L 34.5625,0.5 C 34.300781,0.0859375 33.761719,-0.0625 33.3125,0.125 L 30.5,1.3125 C 30.054688,1.5 29.796875,1.996094 29.90625,2.46875 l 0.6875,2.96875 C 30.179688,5.792969 29.789063,6.175781 29.4375,6.59375 l -2.96875,-0.6875 c -0.484375,-0.109375 -0.941406,0.171875 -1.125,0.625 L 24.1875,9.375 c -0.183594,0.449219 -0.03516,0.960938 0.375,1.21875 l 2.5625,1.59375 c -0.04297,0.542969 -0.01953,1.113281 0.03125,1.65625 l -2.5625,1.59375 c -0.414062,0.261719 -0.566406,0.800781 -0.375,1.25 l 1.1875,2.8125 c 0.1875,0.445313 0.652344,0.707031 1.125,0.59375 L 29.5,19.4375 c 0.351563,0.410156 0.738281,0.777344 1.15625,1.125 L 30,23.53125 c -0.105469,0.476563 0.140625,0.972656 0.59375,1.15625 l 2.84375,1.15625 c 0.121094,0.05078 0.25,0.0625 0.375,0.0625 0.335938,0 0.65625,-0.171875 0.84375,-0.46875 l 1.65625,-2.59375 c 0.542969,0.03906 1.089844,0.01953 1.625,-0.03125 l 1.65625,2.59375 c 0.265625,0.40625 0.773438,0.5625 1.21875,0.375 l 2.84375,-1.1875 c 0.453125,-0.191406 0.675781,-0.679687 0.5625,-1.15625 L 43.5,20.46875 c 0.402344,-0.347656 0.78125,-0.746094 1.125,-1.15625 l 3,0.65625 c 0.484375,0.105469 0.972656,-0.144531 1.15625,-0.59375 l 1.15625,-2.84375 c 0.183594,-0.457031 0.01172,-0.996094 -0.40625,-1.25 l -2.625,-1.59375 c 0.03906,-0.53125 0.04687,-1.0625 0,-1.59375 l 2.5625,-1.6875 C 49.875,10.144531 50.0625,9.632813 49.875,9.1875 L 48.65625,6.375 C 48.46875,5.925781 47.984375,5.667969 47.5,5.78125 L 44.53125,6.5 C 44.179688,6.089844 43.820313,5.722656 43.40625,5.375 l 0.625,-3 C 44.132813,1.898438 43.886719,1.402344 43.4375,1.21875 L 40.59375,0.0625 C 40.480469,0.015625 40.367188,0.00390625 40.25,0 Z M 37,8.875 c 0.53125,-0.00781 1.070313,0.070313 1.59375,0.28125 2.09375,0.851563 3.101563,3.25 2.25,5.34375 -0.851562,2.09375 -3.25,3.101563 -5.34375,2.25 C 33.40625,15.898438 32.398438,13.5 33.25,11.40625 33.890625,9.835938 35.40625,8.898438 37,8.875 Z M 14.53125,17 c -0.488281,0 -0.921875,0.359375 -1,0.84375 l -0.625,3.9375 c -0.742187,0.226563 -1.476562,0.515625 -2.15625,0.875 L 7.5,20.34375 c -0.398437,-0.285156 -0.933594,-0.25 -1.28125,0.09375 l -2.75,2.75 C 3.125,23.53125 3.097656,24.070313 3.375,24.46875 L 5.65625,27.75 C 5.289063,28.4375 4.980469,29.160156 4.75,29.90625 l -3.90625,0.625 C 0.359375,30.613281 0,31.042969 0,31.53125 v 3.875 c 0,0.484375 0.335938,0.914063 0.8125,1 L 4.75,37.09375 C 4.980469,37.839844 5.289063,38.5625 5.65625,39.25 l -2.3125,3.25 c -0.285156,0.398438 -0.253906,0.933594 0.09375,1.28125 l 2.75,2.75 C 6.53125,46.875 7.070313,46.902344 7.46875,46.625 L 10.75,44.34375 c 0.683594,0.363281 1.382813,0.648438 2.125,0.875 l 0.65625,3.9375 c 0.07813,0.480469 0.511719,0.84375 1,0.84375 h 3.875 c 0.484375,0 0.914063,-0.335937 1,-0.8125 l 0.6875,-4 c 0.742188,-0.230469 1.445313,-0.511719 2.125,-0.875 l 3.3125,2.3125 c 0.398438,0.277344 0.9375,0.25 1.28125,-0.09375 l 2.75,-2.75 c 0.347656,-0.347656 0.378906,-0.914062 0.09375,-1.3125 l -2.34375,-3.25 c 0.359375,-0.679687 0.648438,-1.394531 0.875,-2.125 l 4,-0.6875 C 32.667969,36.32031 33,35.890625 33,35.40625 v -3.875 C 33,31.042969 32.640625,30.640625 32.15625,30.5625 L 28.1875,29.90625 c -0.226562,-0.730469 -0.515625,-1.445312 -0.875,-2.125 l 2.3125,-3.3125 c 0.277344,-0.398437 0.25,-0.9375 -0.09375,-1.28125 l -2.75,-2.75 C 26.433594,20.089844 25.898438,20.058594 25.5,20.34375 l -3.28125,2.34375 c -0.683594,-0.363281 -1.386719,-0.648437 -2.125,-0.875 l -0.6875,-3.96875 C 19.324219,17.363281 18.890625,17 18.40625,17 Z M 16.5,28.34375 c 2.855469,0 5.15625,2.300781 5.15625,5.15625 0,2.855469 -2.304687,5.15625 -5.15625,5.15625 -2.851562,0 -5.15625,-2.300781 -5.15625,-5.15625 0,-2.855469 2.300781,-5.15625 5.15625,-5.15625 z"
         inkscape:connector-curvature="0" />
    </g>
    <g
       id="g1404"
       style="fill:#535353;fill-opacity:1;stroke:none"
       transform="matrix(0.76365512,0,0,0.70179804,20.354929,20.075018)">
      <path
         d="M 20.676751,17.463926 A 9.375,8.90625 0 0 1 30.88312,9.5317906 9.375,8.90625 0 0 1 39.342292,19.141757 9.375,8.90625 0 0 1 29.318329,27.281113 9.375,8.90625 0 0 1 20.64301,17.846657"
         sodipodi:open="true"
         sodipodi:end="3.2035867"
         sodipodi:start="3.2467138"
         sodipodi:ry="8.90625"
         sodipodi:rx="9.375"
         sodipodi:cy="18.398438"
         sodipodi:cx="30"
         sodipodi:type="arc"
         id="path2553"
         style="opacity:1;fill:#535353;fill-opacity:1;stroke:none;stroke-width:5.29133844;stroke-linecap:square;stroke-linejoin:round;stroke-miterlimit:4;stroke-dasharray:none;stroke-dashoffset:0;stroke-opacity:1;paint-order:markers stroke fill" />
      <path
         sodipodi:nodetypes="ccccccccccccc"
         inkscape:connector-curvature="0"
         id="path2555"
         d="M 4.876784,59.171133 7.8113821,42.542974 8.333815,40.12716 9.4178,38.64146 l 1.329846,-1.176364 1.851991,-0.819974 7.187572,-3.931895 0.897793,-0.520625 1.330454,-0.214281 0.673091,0.844604 0.472736,2.57697 3.746751,25.211917 z"
         style="fill:#535353;fill-opacity:1;stroke:none;stroke-width:1.24159884;stroke-linecap:butt;stroke-linejoin:round;stroke-miterlimit:4;stroke-dasharray:none;stroke-opacity:1" />
      <path
         sodipodi:nodetypes="ccccccccccccc"
         inkscape:connector-curvature="0"
         id="path2555-7"
         d="m 54.614529,59.431187 -2.827526,-16.644193 -0.503371,-2.418142 -1.044434,-1.487134 -1.281325,-1.177499 -1.784418,-0.820765 -6.925323,-3.935686 -0.865036,-0.521127 -1.28191,-0.214488 -0.648532,0.84542 -0.455488,2.579454 -3.610045,25.236228 z"
         style="fill:#535353;fill-opacity:1;stroke:none;stroke-width:1.21932507;stroke-linecap:butt;stroke-linejoin:round;stroke-miterlimit:4;stroke-dasharray:none;stroke-opacity:1" />
      <path
         sodipodi:nodetypes="ccccc"
         inkscape:connector-curvature="0"
         id="path2578"
         d="m 29.831067,33.044745 h 0.911505 l 1.20153,26.422889 h -3.604588 z"
         style="fill:#535353;fill-opacity:1;stroke:none;stroke-width:1.23964667px;stroke-linecap:butt;stroke-linejoin:miter;stroke-opacity:1" />
    </g>
  </g>
</svg>
