<?xml version="1.0" encoding="UTF-8" standalone="no"?>
<!-- Created with Inkscape (http://www.inkscape.org/) -->

<svg
   xmlns:dc="http://purl.org/dc/elements/1.1/"
   xmlns:cc="http://creativecommons.org/ns#"
   xmlns:rdf="http://www.w3.org/1999/02/22-rdf-syntax-ns#"
   xmlns:svg="http://www.w3.org/2000/svg"
   xmlns="http://www.w3.org/2000/svg"
   xmlns:sodipodi="http://sodipodi.sourceforge.net/DTD/sodipodi-0.dtd"
   xmlns:inkscape="http://www.inkscape.org/namespaces/inkscape"
   width="48px"
   height="48px"
   id="svg2985"
   version="1.1"
   inkscape:version="0.48.5 r10040"
   sodipodi:docname="compare_mode_a_minus_b.svg">
  <defs
     id="defs2987" />
  <sodipodi:namedview
     id="base"
     pagecolor="#ffffff"
     bordercolor="#666666"
     borderopacity="1.0"
     inkscape:pageopacity="0.0"
     inkscape:pageshadow="2"
     inkscape:zoom="7"
     inkscape:cx="0.71428543"
     inkscape:cy="35.428571"
     inkscape:current-layer="layer1"
     showgrid="true"
     inkscape:grid-bbox="true"
     inkscape:document-units="px"
     inkscape:window-width="1920"
     inkscape:window-height="1098"
     inkscape:window-x="0"
     inkscape:window-y="31"
     inkscape:window-maximized="1" />
  <metadata
     id="metadata2990">
    <rdf:RDF>
      <cc:Work
         rdf:about="">
        <dc:format>image/svg+xml</dc:format>
        <dc:type
           rdf:resource="http://purl.org/dc/dcmitype/StillImage" />
        <dc:title />
      </cc:Work>
    </rdf:RDF>
  </metadata>
  <g
     id="layer1"
     inkscape:label="Layer 1"
     inkscape:groupmode="layer">
    <path
       style="opacity:1;fill:#000000;stroke:none;stroke-width:0.60000001999999997;stroke-linecap:round;stroke-linejoin:miter;stroke-miterlimit:2;stroke-opacity:1;stroke-dasharray:none;stroke-dashoffset:0;fill-opacity:1"
       d="M 33.03125 9.96875 C 32.032678 9.9833193 31.013457 10.084544 30 10.3125 L 29.9375 10.3125 C 27.819193 10.798076 25.919334 11.75467 24.28125 13 C 27.14616 15.138214 29.274082 18.298661 30.09375 22.125 C 31.402963 28.236612 28.978963 34.27812 24.375 37.78125 C 27.73122 40.288475 32.061622 41.390511 36.4375 40.40625 C 44.545156 38.582605 49.685943 30.370385 47.90625 22.0625 C 46.349019 14.793101 40.021252 9.8667648 33.03125 9.96875 z M 24.375 37.78125 C 21.512793 35.643072 19.350404 32.480189 18.53125 28.65625 C 17.221985 22.544398 19.672958 16.503389 24.28125 13 C 20.925765 10.495647 16.592286 9.3912663 12.21875 10.375 L 12.15625 10.40625 C 4.0786769 12.257859 -1.0246617 20.434352 0.75 28.71875 C 2.5296929 37.026635 10.548594 42.292395 18.65625 40.46875 C 20.799591 39.986651 22.720516 39.040137 24.375 37.78125 z "
       id="path2992-3" />
    <g
       style="font-size:12px;font-style:normal;font-variant:normal;font-weight:normal;font-stretch:normal;line-height:125%;letter-spacing:0px;word-spacing:0px;fill:#ffffff;fill-opacity:1;stroke:none;font-family:Amiri;-inkscape-font-specification:Amiri"
       id="text3834">
      <path
         d="m 5.8981586,29.013672 c 1.890621,-4.862622 3.2727811,-8.407541 4.1464844,-10.634766 0.05728,-0.107408 0.182611,-0.236314 0.375976,-0.386719 0.200515,-0.157537 0.347324,-0.236313 0.44043,-0.236328 0.02148,1.5e-5 0.04296,0.01076 0.06445,0.03223 0.02864,0.01434 0.05012,0.02508 0.06445,0.03223 l 4.372071,11.472657 c 0.358061,0.92383 0.540678,1.396485 0.547851,1.417968 0.09309,0.222007 0.315092,0.401043 0.666016,0.53711 0.35806,0.128907 0.623033,0.19336 0.794922,0.193359 0.04295,0.06445 0.06444,0.171876 0.06445,0.322266 -1.4e-5,0.143229 -0.0072,0.243489 -0.02148,0.300781 -1.432304,-0.07161 -2.220064,-0.107422 -2.363282,-0.107422 -0.29363,0 -0.569346,0.0072 -0.827148,0.02148 -0.250661,0.0072 -0.533539,0.02148 -0.848633,0.04297 -0.315113,0.02148 -0.587248,0.03581 -0.816406,0.04297 -0.05014,-0.05729 -0.0752,-0.161133 -0.0752,-0.311523 0.0072,-0.150391 0.03938,-0.254232 0.09668,-0.311524 0.164705,1e-6 0.383129,-0.02506 0.655274,-0.0752 0.279287,-0.05729 0.461904,-0.125325 0.547851,-0.204102 0.05728,-0.05729 0.08593,-0.157551 0.08594,-0.300781 -10e-6,-0.193358 -0.121755,-0.637368 -0.365235,-1.332031 -0.243499,-0.70182 -0.486988,-1.353512 -0.730468,-1.955078 l -0.365235,-0.902344 c -0.04298,-0.05729 -0.08595,-0.08593 -0.128906,-0.08594 -0.186206,-0.01432 -0.89519,-0.02148 -2.126953,-0.02148 -0.9023493,6e-6 -1.6757861,0.02149 -2.3203127,0.06445 l -0.1074219,0.06445 c -0.4010451,1.0599 -0.7233104,1.933597 -0.9667968,2.621094 -0.2005236,0.587242 -0.3007839,1.095705 -0.3007813,1.525391 -2.6e-6,0.121746 0.064451,0.225587 0.1933594,0.311523 0.1360648,0.08594 0.2971974,0.150392 0.4833984,0.19336 0.1933559,0.03581 0.3580693,0.06087 0.4941406,0.0752 0.1360638,0.01432 0.2399049,0.02149 0.3115235,0.02148 0.028642,0.02865 0.046545,0.125326 0.053711,0.290039 C 8.0072039,31.888998 8.0036232,32 7.9821429,32.064453 7.7744567,32.057292 7.548871,32.042969 7.3053851,32.021484 7.0618923,32 6.8363066,31.985677 6.6286273,31.978516 c -0.2076849,-0.01432 -0.4511742,-0.02148 -0.7304687,-0.02148 -0.2936216,0 -0.5550146,0.0072 -0.7841797,0.02148 -0.2220063,0.0072 -0.4690763,0.02148 -0.741211,0.04297 -0.2721356,0.02148 -0.5299479,0.03581 -0.7734375,0.04297 -0.028646,-0.02865 -0.042968,-0.121745 -0.042969,-0.279297 3e-7,-0.157551 0.014323,-0.272135 0.042969,-0.34375 0.1790366,1e-6 0.4153645,-0.03581 0.7089844,-0.107422 0.293619,-0.07878 0.4869782,-0.179035 0.5800781,-0.300781 0.3007799,-0.393879 0.6373681,-1.067055 1.0097657,-2.019531 m 4.2109374,-8.658203 -1.9765624,5.242187 c -4.3e-6,0.0573 0.014319,0.08594 0.042969,0.08594 0.7447866,0.02865 1.3964787,0.04298 1.9550777,0.04297 0.537103,7e-6 1.138665,-0.02148 1.804688,-0.06445 0.01431,7e-6 0.02864,-0.0072 0.04297,-0.02148 0.01431,-0.02864 0.02148,-0.05012 0.02148,-0.06445 l 0,-0.02148 -1.890625,-5.199218"
         style="font-size:22px"
         id="path3870" />
    </g>
    <g
       style="font-size:12px;font-style:normal;font-variant:normal;font-weight:normal;font-stretch:normal;line-height:125%;letter-spacing:0px;word-spacing:0px;fill:#ffffff;fill-opacity:1;stroke:none;font-family:Amiri;-inkscape-font-specification:Amiri"
       id="text3834-3">
      <path
         d="m 35.654995,25.099892 0,4.662109 c -0.0072,0.207685 0.0072,0.486981 0.04297,0.837891 0.0358,0.350912 0.08593,0.558594 0.15039,0.623047 0.150386,0.157552 0.354488,0.261394 0.612305,0.311523 0.264968,0.05013 0.626622,0.0752 1.084961,0.07519 2.277335,1e-6 3.416006,-1.052732 3.416016,-3.158203 -10e-6,-2.234369 -1.33204,-3.351555 -3.996094,-3.351562 l -1.310547,0 m 0,-0.816407 1.793945,0 c 0.895175,8e-6 1.568352,-0.247062 2.019532,-0.741211 0.451163,-0.494131 0.676748,-1.084951 0.676757,-1.77246 -9e-6,-0.945302 -0.30079,-1.682931 -0.902343,-2.212891 -0.594409,-0.529935 -1.396491,-0.794908 -2.40625,-0.794922 -0.651698,1.4e-5 -1.009771,0.07163 -1.074219,0.214844 -0.08594,0.207695 -0.121749,0.744804 -0.107422,1.611328 l 0,3.695312 m 2.126953,-6.208984 c 0.415358,1.4e-5 0.816399,0.03224 1.203125,0.09668 0.386711,0.06447 0.773429,0.175469 1.160156,0.333008 0.38671,0.150404 0.719717,0.343763 0.999024,0.580078 0.286448,0.236341 0.515614,0.544283 0.6875,0.923828 0.179025,0.372407 0.268544,0.794933 0.268554,1.267578 -1e-5,0.73764 -0.2435,1.396494 -0.730468,1.976562 -0.479828,0.580087 -0.959645,0.959644 -1.439453,1.138672 -0.06446,0.02865 -0.06446,0.06446 0,0.107422 0.279287,0.01433 0.594391,0.103849 0.945312,0.268555 0.350902,0.164721 0.69107,0.390306 1.020508,0.676758 0.336577,0.279303 0.619455,0.644537 0.848633,1.095703 0.229155,0.444015 0.343738,0.916671 0.34375,1.417969 -1.2e-5,1.310549 -0.48341,2.370444 -1.450196,3.179687 -0.895191,0.744792 -2.395515,1.13151 -4.500976,1.160156 l -4.941406,0 c -0.05013,-0.05729 -0.0752,-0.161132 -0.0752,-0.311523 0.0072,-0.15039 0.03223,-0.254231 0.0752,-0.311524 0.214842,1e-6 0.508462,-0.03223 0.880859,-0.09668 0.372394,-0.06445 0.572914,-0.146809 0.601562,-0.247071 0.07161,-0.229165 0.10742,-0.759113 0.107422,-1.589843 l 0,-9.173828 c -2e-6,-0.830717 -0.03581,-1.360665 -0.107422,-1.589844 -0.02865,-0.100247 -0.229168,-0.182604 -0.601562,-0.247071 -0.372397,-0.06444 -0.666017,-0.09667 -0.880859,-0.09668 -0.04297,-0.05728 -0.06804,-0.161119 -0.0752,-0.311524 -10e-7,-0.150376 0.02506,-0.254217 0.0752,-0.311523 1.468096,0.07163 2.313147,0.107436 2.535156,0.107422 0.243486,1.4e-5 0.698238,-0.0071 1.364258,-0.02149 0.66601,-0.01431 1.228184,-0.02147 1.686523,-0.02148"
         style="font-size:22px"
         id="path3867" />
    </g>
    <g
       style="font-size:12px;font-style:normal;font-variant:normal;font-weight:normal;font-stretch:normal;line-height:125%;letter-spacing:0px;word-spacing:0px;fill:#000000;fill-opacity:1;stroke:none;font-family:Amiri;-inkscape-font-specification:Amiri"
       id="text3859">
      <path
         d="m 22.386719,24.902344 c 2.708329,-0.143224 4.277338,-0.221349 4.707031,-0.234375 0.09114,5e-6 0.136713,0.0586 0.136719,0.175781 -6e-6,0.345057 -0.08464,0.696619 -0.253907,1.054687 -0.266932,0.01954 -1.835941,0.09115 -4.707031,0.214844 -0.09115,4e-6 -0.13672,-0.07161 -0.136719,-0.214844 -1e-6,-0.299474 0.08463,-0.631505 0.253907,-0.996093"
         style="font-size:20px"
         id="path3864" />
    </g>
  </g>
</svg>
