<?xml version="1.0" encoding="UTF-8"?>
<!-- Created with Inkscape (http://www.inkscape.org/) -->
<svg id="svg2" width="40" height="40" version="1.1" xmlns="http://www.w3.org/2000/svg" xmlns:cc="http://creativecommons.org/ns#" xmlns:dc="http://purl.org/dc/elements/1.1/" xmlns:rdf="http://www.w3.org/1999/02/22-rdf-syntax-ns#" xmlns:xlink="http://www.w3.org/1999/xlink">
 <defs id="defs4">
  <marker id="Arrow1Mend" overflow="visible" orient="auto">
   <path id="path3830" transform="scale(.4) rotate(180) translate(10)" d="m0 0 5-5-17.5 5 17.5 5-5-5z" fill-rule="evenodd" stroke="#000" stroke-width="1pt"/>
  </marker>
  <linearGradient id="linearGradient3016" x1="2.8701" x2=".067575" y1="36.634" y2="16.039" gradientUnits="userSpaceOnUse">
   <stop id="stop3805-2-7" stop-color="#29ff00" stop-opacity=".83478" offset="0"/>
   <stop id="stop3807-7-5" stop-color="#f01911" stop-opacity=".84348" offset="1"/>
  </linearGradient>
 </defs>
 <metadata id="metadata7">
  <rdf:RDF>
   <cc:Work rdf:about="">
    <dc:format>image/svg+xml</dc:format>
    <dc:type rdf:resource="http://purl.org/dc/dcmitype/StillImage"/>
    <dc:title/>
   </cc:Work>
  </rdf:RDF>
 </metadata>
 <g id="layer1" transform="translate(0 -1012.4)" fill="none">
  <path id="path2985" transform="matrix(-.69178 .8214 -.7221 -.78691 48.129 1041.9)" d="m33.419 25.336c-0.68559 9.9831-9.3064 17.518-19.255 16.83-9.9487-0.68796-17.458-9.3386-16.772-19.322 0.65065-9.4743 8.481-16.837 17.945-16.873" stroke="url(#linearGradient3016)" stroke-linecap="round" stroke-width="2.8128"/>
  <path id="path3757" d="m5.8607 1023.3 2.8519 2.2477" stroke="#000" stroke-width="1.0665px"/>
  <path id="path3759" d="m4.3008 1044.2 2.5882-1.5709" stroke="#000" stroke-width="1.0665px"/>
  <path id="path3761" d="m19.758 1015.4-0.03176 4.037" stroke="#000" stroke-width=".96906px"/>
  <path id="path3765" d="m32.158 1021.1-0.40538 0.3753-0.81715 0.7989-1.2753 1.2468" stroke="#000" stroke-width=".90781px"/>
  <path id="path3769" d="m37.442 1033.5-3.9749-0.045" stroke="#000" stroke-width=".91632px"/>
  <path id="path3771" d="m2.4591 1034h3.9157" stroke="#000" stroke-width=".90574px"/>
  <path id="path3759-3" d="m31.715 1044.8 2.9079 1.6135" stroke="#000" stroke-width="1.0665px"/>
  <path id="path3815" d="m18.94 1033.5 10.354 9.0757" marker-end="url(#Arrow1Mend)" stroke="#000" stroke-width="1.2799"/>
 </g>
</svg>
