<?xml version="1.0" encoding="UTF-8" standalone="no"?>
<!-- Created with Inkscape (http://www.inkscape.org/) -->

<svg
   xmlns:dc="http://purl.org/dc/elements/1.1/"
   xmlns:cc="http://creativecommons.org/ns#"
   xmlns:rdf="http://www.w3.org/1999/02/22-rdf-syntax-ns#"
   xmlns:svg="http://www.w3.org/2000/svg"
   xmlns="http://www.w3.org/2000/svg"
   xmlns:sodipodi="http://sodipodi.sourceforge.net/DTD/sodipodi-0.dtd"
   xmlns:inkscape="http://www.inkscape.org/namespaces/inkscape"
   width="48px"
   height="48px"
   id="svg2985"
   version="1.1"
   inkscape:version="0.48.5 r10040"
   sodipodi:docname="New document 2">
  <defs
     id="defs2987" />
  <sodipodi:namedview
     id="base"
     pagecolor="#ffffff"
     bordercolor="#666666"
     borderopacity="1.0"
     inkscape:pageopacity="0.0"
     inkscape:pageshadow="2"
     inkscape:zoom="7"
     inkscape:cx="0.14285714"
     inkscape:cy="24"
     inkscape:current-layer="layer1"
     showgrid="true"
     inkscape:grid-bbox="true"
     inkscape:document-units="px"
     inkscape:window-width="1920"
     inkscape:window-height="1098"
     inkscape:window-x="0"
     inkscape:window-y="31"
     inkscape:window-maximized="1" />
  <metadata
     id="metadata2990">
    <rdf:RDF>
      <cc:Work
         rdf:about="">
        <dc:format>image/svg+xml</dc:format>
        <dc:type
           rdf:resource="http://purl.org/dc/dcmitype/StillImage" />
        <dc:title></dc:title>
      </cc:Work>
    </rdf:RDF>
  </metadata>
  <g
     id="layer1"
     inkscape:label="Layer 1"
     inkscape:groupmode="layer">
    <path
       sodipodi:type="arc"
       style="opacity:0.59433959;fill:none;stroke:#000000;stroke-width:2.0744164;stroke-linecap:round;stroke-linejoin:miter;stroke-miterlimit:4;stroke-opacity:1;stroke-dasharray:none;stroke-dashoffset:0"
       id="path2993"
       sodipodi:cx="22.928572"
       sodipodi:cy="23.214285"
       sodipodi:rx="23.071428"
       sodipodi:ry="23.214285"
       d="m 45.945412,24.810254 a 23.071428,23.214285 0 1 1 0.0092,-0.140998"
       sodipodi:start="0.068803712"
       sodipodi:end="6.3459021"
       sodipodi:open="true"
       transform="matrix(0.96401579,0,0,0.96423735,2.3964923,1.401633)" />
    <g
       transform="scale(0.95217384,1.0502284)"
       style="font-size:16.1481266px;font-style:normal;font-variant:normal;font-weight:normal;font-stretch:normal;line-height:125%;letter-spacing:0px;word-spacing:0px;opacity:0.68867929;fill:#000000;fill-opacity:1;stroke:none;font-family:Amiri;-inkscape-font-specification:Amiri"
       id="text3763">
      <path
         d="m 23.791351,10.367857 c -0.508138,-0.5081034 -0.762204,-1.1301281 -0.7622,-1.8660758 -4e-6,-0.7358853 0.254062,-1.35791 0.7622,-1.8660759 0.508128,-0.5080998 1.130153,-0.7621662 1.866076,-0.7622 0.73591,3.38e-5 1.357934,0.2541002 1.866076,0.7622 0.508124,0.5081659 0.762191,1.1301906 0.7622,1.8660759 -9e-6,0.7359477 -0.254076,1.3579724 -0.7622,1.8660758 -0.508142,0.508162 -1.130166,0.762229 -1.866076,0.7622 -0.735923,2.9e-5 -1.357948,-0.254038 -1.866076,-0.7622 m 4.28409,12.221483 0,10.986194 c -9e-6,2.032537 0.0876,3.329152 0.262828,3.889848 0.07008,0.245308 0.508123,0.446809 1.314138,0.604504 0.823514,0.157698 1.489344,0.236546 1.99749,0.236544 0.105117,0.140176 0.157683,0.394243 0.157696,0.7622 0.01751,0.367959 -0.03506,0.622026 -0.157696,0.7622 -3.591987,-0.175218 -5.466822,-0.262827 -5.624511,-0.262827 -0.613271,0 -1.209013,0.01752 -1.787228,0.05257 -0.560704,0.01752 -1.209011,0.05257 -1.944924,0.105131 -0.73592,0.05257 -1.349184,0.08761 -1.839793,0.105131 -0.122655,-0.140174 -0.183981,-0.394241 -0.183979,-0.7622 0.01752,-0.367957 0.07885,-0.622024 0.183979,-0.7622 0.508131,2e-6 1.165199,-0.07885 1.971207,-0.236544 0.823522,-0.157695 1.270328,-0.359196 1.340421,-0.604504 0.140169,-0.438043 0.227778,-1.734658 0.262827,-3.889848 l 0,-9.777187 c -5e-6,-1.40173 -0.08761,-2.312864 -0.262827,-2.733407 -0.105136,-0.262809 -0.438051,-0.47307 -0.998745,-0.630786 -0.560703,-0.157677 -1.033792,-0.245286 -1.419269,-0.262828 -0.367961,-0.03502 -0.700876,-0.05255 -0.998745,-0.05257 -0.07009,-0.07007 -0.113894,-0.28033 -0.131414,-0.630786 -2e-6,-0.350417 0.0438,-0.595722 0.131414,-0.735918 2.99623,-0.402981 5.50185,-1.138897 7.516869,-2.207751 0.122644,2.3e-5 0.245296,0.105154 0.367959,0.315393 0.140165,0.210284 0.210252,0.385503 0.210262,0.525655 -0.245316,1.717161 -0.367968,2.873601 -0.367959,3.469324 l 0,1.734662"
         style="font-size:53.82709122px"
         id="path3768" />
    </g>
  </g>
</svg>
