<?xml version="1.0" encoding="UTF-8" standalone="no"?>
<svg
   xmlns:dc="http://purl.org/dc/elements/1.1/"
   xmlns:cc="http://creativecommons.org/ns#"
   xmlns:rdf="http://www.w3.org/1999/02/22-rdf-syntax-ns#"
   xmlns:svg="http://www.w3.org/2000/svg"
   xmlns="http://www.w3.org/2000/svg"
   xmlns:sodipodi="http://sodipodi.sourceforge.net/DTD/sodipodi-0.dtd"
   xmlns:inkscape="http://www.inkscape.org/namespaces/inkscape"
   version="1.1"
   viewBox="0 0 32 32"
   xml:space="preserve"
   id="svg2"
   inkscape:version="0.48.5 r10040"
   width="100%"
   height="100%"
   sodipodi:docname="plot-xright.svg"><metadata
     id="metadata14"><rdf:RDF><cc:Work
         rdf:about=""><dc:format>image/svg+xml</dc:format><dc:type
           rdf:resource="http://purl.org/dc/dcmitype/StillImage" /><dc:title></dc:title></cc:Work></rdf:RDF></metadata><defs
     id="defs12" /><sodipodi:namedview
     pagecolor="#ffffff"
     bordercolor="#666666"
     borderopacity="1"
     objecttolerance="10"
     gridtolerance="10"
     guidetolerance="10"
     inkscape:pageopacity="0"
     inkscape:pageshadow="2"
     inkscape:window-width="1920"
     inkscape:window-height="1098"
     id="namedview10"
     showgrid="false"
     inkscape:zoom="7.375"
     inkscape:cx="16.271186"
     inkscape:cy="16"
     inkscape:window-x="0"
     inkscape:window-y="31"
     inkscape:window-maximized="1"
     inkscape:current-layer="text2991" /><path
     d="m 13.98936,25.115318 13.438995,-0.232141 m -13.907009,1.972482 -0.06683,-3.463362 -2.966553,1.788502 3.033378,1.67486 z"
     stroke-miterlimit="10"
     id="path4"
     inkscape:connector-curvature="0"
     style="fill:none;stroke:#00a14b;stroke-width:2;stroke-miterlimit:10" /><path
     d="m 6.838878,25.344822 c 0.088913,1.879899 -0.5925984,3.092441 -1.9870411,3.158377 -1.3494918,0.06381 -2.1265001,-1.124816 -2.2196577,-2.904402 -0.0859,-1.816971 0.6294089,-3.076162 1.9968816,-3.140822 1.412374,-0.06779 2.1282001,1.160776 2.2098172,2.886847 z M 3.7478856,25.54504 c 0.058188,1.420837 0.4886357,2.140309 1.1009516,2.111356 0.6472769,-0.03061 0.9514875,-0.837876 0.8851271,-2.241308 -0.064166,-1.357484 -0.4257067,-2.143285 -1.0909637,-2.111828 -0.5942893,0.0291 -0.973395,0.776842 -0.895115,2.24178 z"
     id="path8"
     inkscape:connector-curvature="0" /><g
     transform="scale(0.92027688,1.0866295)"
     style="font-size:25.50320053px;font-style:normal;font-variant:normal;font-weight:normal;font-stretch:normal;line-height:125%;letter-spacing:0px;word-spacing:0px;fill:#000000;fill-opacity:1;stroke:none;font-family:Amiri;-inkscape-font-specification:Amiri"
     id="text2991"><path
       d="m 13.114176,6.3433429 c 0.763764,1.06e-5 1.602247,-0.041498 2.515452,-0.1245273 0.0166,0.083029 0.0249,0.207556 0.02491,0.373582 -6e-6,0.1660466 -0.02491,0.282272 -0.07472,0.3486766 -0.66415,10e-6 -0.996223,0.1411408 -0.996218,0.4233929 -5e-6,0.058122 0.0415,0.1577441 0.124527,0.2988657 l 1.643761,2.6150742 c 0.132823,-0.21584 0.369424,-0.5603658 0.709806,-1.0335769 0.348669,-0.4731958 0.610176,-0.8592302 0.784522,-1.1581043 0.182632,-0.2988565 0.273952,-0.5230055 0.27396,-0.6724477 -8e-6,-0.1162159 -0.07057,-0.2075359 -0.211696,-0.2739602 -0.132837,-0.074707 -0.273968,-0.1203665 -0.423393,-0.1369801 -0.14944,-0.024895 -0.311326,-0.041499 -0.485657,-0.049811 -0.174345,-0.00829 -0.265665,-0.012443 -0.27396,-0.012453 -0.02491,-0.016594 -0.04152,-0.1286682 -0.04981,-0.3362239 -7e-6,-0.207535 0.0166,-0.3362131 0.04981,-0.3860347 0.240746,0.00831 0.518857,0.024916 0.834333,0.049811 0.315462,0.024916 0.597723,0.045671 0.846786,0.062264 0.257348,0.00831 0.535459,0.012463 0.834333,0.012453 0.747154,1.06e-5 1.4113,-0.041498 1.992438,-0.1245273 0.01659,0.066425 0.02074,0.2034051 0.01245,0.4109402 -1.2e-5,0.2075557 -0.01246,0.3113284 -0.03736,0.3113184 -1.037738,0.058123 -1.676977,0.2407626 -1.917721,0.5479203 -0.207554,0.2905729 -0.523023,0.73472 -0.946408,1.3324426 -0.4234,0.589437 -0.772077,1.0709422 -1.046029,1.4445169 -0.265666,0.373589 -0.431702,0.601889 -0.49811,0.684901 l 2.988657,4.433173 c 0.415081,0.597732 1.05432,0.896598 1.917721,0.896597 0.01659,1e-6 0.02489,0.05396 0.02491,0.161886 0.0083,0.107924 0.0083,0.219998 0,0.336224 -0.0083,0.116225 -0.02492,0.190941 -0.04981,0.224149 -0.215858,-0.0083 -0.473215,-0.02491 -0.772069,-0.04981 -0.298876,-0.02491 -0.568685,-0.04151 -0.809428,-0.04981 -0.232461,-0.0166 -0.485666,-0.02491 -0.759617,-0.02491 -0.315478,0 -0.614343,0.0083 -0.896597,0.02491 -0.28227,0.0083 -0.606041,0.0249 -0.971313,0.04981 -0.356985,0.02491 -0.655851,0.04151 -0.896597,0.04981 -0.03321,-0.08302 -0.04982,-0.224149 -0.04981,-0.423393 0.0083,-0.199243 0.0332,-0.298865 0.07472,-0.298866 0.240746,-0.0166 0.473196,-0.06226 0.697353,-0.13698 0.232443,-0.07471 0.348669,-0.178488 0.348676,-0.311318 -7e-6,-0.03321 -0.01661,-0.08302 -0.04981,-0.149433 -0.863396,-1.411307 -1.519239,-2.449034 -1.967532,-3.113184 -0.09132,0.132834 -0.348681,0.510566 -0.772069,1.133199 -0.415096,0.614338 -0.75547,1.133201 -1.021124,1.556592 -0.09963,0.157736 -0.149437,0.315471 -0.149433,0.473204 -4e-6,0.09962 0.0332,0.186792 0.09962,0.261507 0.06641,0.06642 0.174334,0.120377 0.323771,0.161886 0.15773,0.03321 0.278106,0.05811 0.361129,0.07472 0.09132,0.0083 0.240748,0.02076 0.448298,0.03736 0.05811,0.0083 0.103768,0.01245 0.136981,0.01245 0.0166,1e-6 0.02905,0.05396 0.03736,0.161886 0.0083,0.09962 0.0083,0.207546 0,0.323771 -0.0083,0.116225 -0.02906,0.195093 -0.06226,0.236602 -0.232456,-0.0083 -0.493963,-0.02491 -0.784522,-0.04981 -0.290568,-0.02491 -0.556226,-0.04151 -0.796975,-0.04981 -0.232454,-0.0166 -0.493962,-0.02491 -0.784523,-0.02491 -0.282264,0 -0.543771,0.0083 -0.784522,0.02491 -0.232452,0.0083 -0.49396,0.0249 -0.784522,0.04981 -0.290565,0.02491 -0.547921,0.04151 -0.77207,0.04981 -0.02491,-0.09962 -0.03321,-0.2283 -0.02491,-0.386035 0.0166,-0.166036 0.04151,-0.278111 0.07472,-0.336224 0.03321,-0.0083 0.132829,-0.02491 0.298866,-0.04981 0.166036,-0.02491 0.273959,-0.04151 0.323771,-0.04981 0.05811,-0.0083 0.161884,-0.0249 0.311318,-0.04981 0.157734,-0.03321 0.269808,-0.06226 0.336224,-0.08717 0.07472,-0.03321 0.174337,-0.07471 0.298866,-0.124527 0.124525,-0.04981 0.224147,-0.09962 0.298865,-0.149433 0.08302,-0.05811 0.170185,-0.124526 0.261508,-0.199244 0.09132,-0.08302 0.170185,-0.170186 0.236602,-0.261507 1.544135,-2.224885 2.357713,-3.395441 2.440736,-3.511671 L 12.292295,7.4889945 c -0.124529,-0.1909323 -0.35698,-0.3279123 -0.697353,-0.4109403 -0.332074,-0.09131 -0.655845,-0.13697 -0.971313,-0.13698 -0.0166,10e-6 -0.02906,-0.049801 -0.03736,-0.1494328 -10e-7,-0.099612 0.0041,-0.2075353 0.01245,-0.3237711 0.0083,-0.116215 0.0249,-0.1992331 0.04981,-0.2490547 0.913199,0.083029 1.735079,0.1245379 2.465642,0.1245273"
       style=""
       id="path3019" /></g></svg>