<?xml version="1.0" encoding="UTF-8"?>
<!-- Created with Inkscape (http://www.inkscape.org/) -->
<svg id="svg2" width="36" height="36" version="1.1" xmlns="http://www.w3.org/2000/svg" xmlns:cc="http://creativecommons.org/ns#" xmlns:dc="http://purl.org/dc/elements/1.1/" xmlns:rdf="http://www.w3.org/1999/02/22-rdf-syntax-ns#">
 <defs id="defs4">
  <filter id="filter3784-3" color-interpolation-filters="sRGB">
   <feGaussianBlur id="feGaussianBlur3786-6" stdDeviation="0.10012024"/>
  </filter>
 </defs>
 <metadata id="metadata7">
  <rdf:RDF>
   <cc:Work rdf:about="">
    <dc:format>image/svg+xml</dc:format>
    <dc:type rdf:resource="http://purl.org/dc/dcmitype/StillImage"/>
    <dc:title/>
   </cc:Work>
  </rdf:RDF>
 </metadata>
 <g id="layer1" transform="translate(0 -1016.4)">
  <path id="rect1363-59" d="m25.243 1034 0.968 1.7107h-11.836l0.839-1.7107h10.029zm3.394 2.1159v14.944h-22.988l-2e-4 -14.944 22.988 2e-4z" fill="#e4ff07" filter="url(#filter3784-3)" stroke="#000" stroke-width=".2"/>
  <g id="g3025">
   <path id="path6301" d="m3.1562 1027.5-0.84375 0.4063 1.3125 2.625 3.0625 6.0937 0.71875 1.375 0.40625 0.875 0.84375-0.4374-0.4375-0.8438-0.6875-1.375-3.0625-6.125-1.3125-2.5938z" color="#000000" style="block-progression:tb;text-indent:0;text-transform:none"/>
   <path id="path3031" d="m7.7422 1037.7-1.2391-0.4103 2.275 2.4721-0.62554-3.3008-0.41036 1.239z" fill-rule="evenodd" stroke="#000" stroke-width=".18459pt"/>
  </g>
  <g id="g3033">
   <path id="path6301-7" d="m27.594 1027.8-1.375 11.656 0.90625 0.125 1.375-11.688-0.90625-0.094z" color="#000000" style="block-progression:tb;text-indent:0;text-transform:none"/>
   <path id="path3039" d="m26.801 1038.4-0.80847-1.0248 0.53813 3.3163 1.2951-3.1-1.0247 0.8085z" fill-rule="evenodd" stroke="#000" stroke-width=".18459pt"/>
  </g>
  <g id="g3041">
   <path id="path6301-5" d="m11.719 1027.1-0.90625 0.1875 1.75 7.8438 0.375 1.7187 0.4375 1.9063 0.875-0.1876-0.40625-1.9062-0.375-1.7188-1.75-7.8437z" color="#000000" style="block-progression:tb;text-indent:0;text-transform:none"/>
   <path id="path3047" d="m13.574 1037.6-1.1013-0.7007 1.6021 2.953 0.1998-3.3536-0.70063 1.1013z" fill-rule="evenodd" stroke="#000" stroke-width=".18459pt"/>
  </g>
  <text id="text3015" x="1.3392857" y="1026.5586" fill="#000000" font-family="Amiri" font-size="12px" letter-spacing="0px" word-spacing="0px" style="line-height:125%" xml:space="preserve"><tspan id="tspan3017" x="1.3392857" y="1026.5586">Radios</tspan></text>
 </g>
</svg>
