<?xml version="1.0" encoding="UTF-8"?>
<!-- Created with Inkscape (http://www.inkscape.org/) -->
<svg id="svg2" width="36" height="36" version="1.1" xmlns="http://www.w3.org/2000/svg" xmlns:cc="http://creativecommons.org/ns#" xmlns:dc="http://purl.org/dc/elements/1.1/" xmlns:rdf="http://www.w3.org/1999/02/22-rdf-syntax-ns#">
 <defs id="defs4">
  <filter id="filter3784-3" color-interpolation-filters="sRGB">
   <feGaussianBlur id="feGaussianBlur3786-6" stdDeviation="0.10012024"/>
  </filter>
 </defs>
 <metadata id="metadata7">
  <rdf:RDF>
   <cc:Work rdf:about="">
    <dc:format>image/svg+xml</dc:format>
    <dc:type rdf:resource="http://purl.org/dc/dcmitype/StillImage"/>
    <dc:title/>
   </cc:Work>
  </rdf:RDF>
 </metadata>
 <g id="layer1" transform="translate(0 -1016.4)">
  <g id="text2985">
   <path id="path3013" d="m8.6119 1021.1c-0.052088-0.5045-0.23275-0.9212-0.54199-1.25-0.35157-0.3808-0.82845-0.5713-1.4307-0.5713-0.48503 0-0.86914 0.1563-1.1523 0.4688-0.22787 0.2474-0.3418 0.5452-0.3418 0.8935-1.4e-6 0.5957 0.43457 1.0482 1.3037 1.3575l0.24902 0.088c1.0547 0.3842 1.735 0.7487 2.041 1.0938 0.28645 0.3255 0.42968 0.7145 0.42969 1.167-5.5e-6 0.6836-0.2767 1.2077-0.83008 1.5723-0.40365 0.2636-0.88379 0.3955-1.4404 0.3955-0.60873 0-1.1751-0.1644-1.6992-0.4932-0.14974-0.1009-0.26693-0.1514-0.35156-0.1514-0.12044 0-0.18067 0.1498-0.18066 0.4493h-0.30762v-2.3292h0.28809c0.071613 0.612 0.26855 1.0954 0.59082 1.4502 0.42318 0.4525 0.97656 0.6788 1.6602 0.6788 0.45247 0 0.81217-0.1237 1.0791-0.3711 0.28645-0.2572 0.42968-0.6071 0.42969-1.0498-4.7e-6 -0.3321-0.12045-0.6283-0.36133-0.8887-0.2181-0.2311-0.67383-0.4883-1.3672-0.7715l-0.19043-0.078c-0.72591-0.2832-1.2028-0.5111-1.4307-0.6836-0.41992-0.319-0.62988-0.7422-0.62988-1.2695-8e-7 -0.5892 0.21973-1.0596 0.65918-1.4112 0.40039-0.319 0.9082-0.4785 1.5234-0.4785 0.53385 0 1.0644 0.1432 1.5918 0.4297 0.10742 0.062 0.18717 0.093 0.23926 0.093 0.094396 0 0.14648-0.1335 0.15625-0.4004h0.3125v2.0605h-0.29785"/>
   <path id="path3015" d="m12.489 1026.1h-2.4268v-0.2783c0.21484 0 0.39714-0.021 0.54688-0.063 0.22786-0.049 0.3418-0.2376 0.3418-0.5664v-5.2246c-1e-6 -0.3028-0.0765-0.485-0.22949-0.5469-0.10091-0.042-0.31738-0.064-0.64941-0.064v-0.3076c0.53711-0.01 1.0498-0.06 1.5381-0.1514v6.294c-2e-6 0.3027 0.08952 0.4883 0.26856 0.5566 0.13021 0.049 0.33366 0.073 0.61035 0.073v0.2783"/>
   <path id="path3017" d="m14.3 1019c0.14323 0 0.26367 0.05 0.36133 0.1514 0.10091 0.1009 0.15136 0.2213 0.15137 0.3613-2e-6 0.332-0.1709 0.4981-0.5127 0.498-0.33203 1e-4 -0.49805-0.166-0.49805-0.498-1e-6 -0.3418 0.16601-0.5127 0.49805-0.5127m1.1816 7.0801h-2.3779v-0.2783c0.2181 0 0.39713-0.021 0.53711-0.063 0.22135-0.059 0.33203-0.249 0.33203-0.5713v-2.9883c-1e-6 -0.3157-0.07975-0.5029-0.23926-0.5615-0.10091-0.039-0.31087-0.059-0.62988-0.059v-0.3027c0.54362-0.01 1.0531-0.064 1.5283-0.1612v4.0723c-2e-6 0.2995 0.07649 0.4801 0.22949 0.542 0.14974 0.062 0.35644 0.093 0.62012 0.093v0.2783"/>
   <path id="path3019" d="m20.663 1025c-0.43946 0.8464-1.1133 1.2695-2.0215 1.2695-0.66406 0-1.2142-0.2229-1.6504-0.6689-0.45898-0.4688-0.68848-1.0921-0.68848-1.8701-1e-6 -0.8138 0.24414-1.4649 0.73242-1.9532 0.42643-0.4394 0.97168-0.6591 1.6357-0.6591 0.55989 0 1.027 0.1465 1.4014 0.4394 0.28645 0.2279 0.42968 0.472 0.42969 0.7324-4e-6 0.3418-0.153 0.5127-0.45898 0.5127-0.29297 0-0.43946-0.1367-0.43945-0.4101-4e-6 -0.1921 0.07975-0.3223 0.23926-0.3906-0.24089-0.3646-0.62012-0.5469-1.1377-0.5469-0.58268 0-1.0189 0.2604-1.3086 0.7812-0.23438 0.4167-0.35156 0.8968-0.35156 1.4405-1e-6 0.6152 0.1595 1.123 0.47852 1.5234 0.31901 0.4069 0.73242 0.6103 1.2402 0.6103 0.68359 0 1.2207-0.3434 1.6113-1.0302l0.28809 0.2197"/>
   <path id="path3021" d="m26.122 1023.6h-3.7695v0.1709c-1e-6 0.6575 0.20019 1.1914 0.60059 1.6015 0.33528 0.3321 0.74218 0.4981 1.2207 0.4981 0.71614 0 1.2695-0.3467 1.6602-1.0401l0.26855 0.21c-0.42644 0.8464-1.1084 1.2695-2.0459 1.2695-0.69662 0-1.2712-0.2262-1.7236-0.6787-0.45248-0.4655-0.67871-1.0888-0.67871-1.8701 0-0.8301 0.23926-1.4844 0.71777-1.9629 0.41666-0.4264 0.94726-0.6396 1.5918-0.6396 0.625 0 1.1312 0.2002 1.5186 0.6006 0.42643 0.4264 0.63964 0.9798 0.63965 1.6601v0.1807m-0.67871-0.3809c-0.01954-0.5729-0.18555-1.0172-0.49805-1.333-0.27019-0.2604-0.60059-0.3906-0.99121-0.3906-0.4655 0-0.85287 0.2034-1.1621 0.6103-0.22136 0.2897-0.35645 0.6608-0.40527 1.1133h3.0566"/>
   <path id="path3023" d="m30.399 1022.8c-0.05209-0.3776-0.18555-0.6755-0.40039-0.8936-0.27995-0.2799-0.61686-0.4199-1.0107-0.4199-0.32552 0-0.5957 0.1074-0.81055 0.3222-0.153 0.1628-0.22949 0.3565-0.22949 0.5811-2e-6 0.3906 0.33691 0.6917 1.0107 0.9033l0.25879 0.078c0.55664 0.1791 0.95052 0.3565 1.1816 0.5323 0.33203 0.2506 0.49804 0.5843 0.49805 1.0009-4e-6 0.4948-0.18718 0.8676-0.56152 1.1182-0.28972 0.1986-0.64616 0.2979-1.0693 0.2979-0.37435 0-0.77311-0.1156-1.1963-0.3467-0.14323-0.085-0.25391-0.127-0.33203-0.127-0.10742 0-0.16113 0.1156-0.16113 0.3467h-0.28809v-1.831h0.30762c0.03255 0.472 0.17578 0.8349 0.42969 1.0888 0.32552 0.3353 0.73242 0.503 1.2207 0.503 0.69336 0 1.04-0.3077 1.04-0.9229-4e-6 -0.2702-0.10254-0.4899-0.30762-0.6592-0.13998-0.1107-0.46387-0.2539-0.97168-0.4297l-0.29785-0.1025c-0.45899-0.1497-0.7666-0.2897-0.92285-0.4199-0.29297-0.2311-0.43945-0.5339-0.43945-0.9082-1e-6 -0.3646 0.13672-0.6787 0.41016-0.9424 0.29948-0.28 0.6901-0.4199 1.1719-0.4199 0.41666 0 0.78938 0.099 1.1182 0.2978 0.0944 0.055 0.17415 0.083 0.23926 0.083 0.07487 0 0.12207-0.096 0.1416-0.2881h0.24902v1.5577h-0.27832"/>
  </g>
  <path id="rect1363-59" d="m25.243 1034 0.968 1.7107h-11.836l0.839-1.7107h10.029zm3.394 2.1159v14.944h-22.988l-2e-4 -14.944 22.988 2e-4z" fill="#e4ff07" filter="url(#filter3784-3)" stroke="#000" stroke-width=".2"/>
  <g id="g3025">
   <path id="path6301" d="m3.1562 1027.5-0.84375 0.4063 1.3125 2.625 3.0625 6.0937 0.71875 1.375 0.40625 0.875 0.84375-0.4374-0.4375-0.8438-0.6875-1.375-3.0625-6.125-1.3125-2.5938z" color="#000000" style="block-progression:tb;text-indent:0;text-transform:none"/>
   <path id="path3031" d="m7.7422 1037.7-1.2391-0.4103 2.275 2.4721-0.62554-3.3008-0.41036 1.239z" fill-rule="evenodd" stroke="#000" stroke-width=".18459pt"/>
  </g>
  <g id="g3033">
   <path id="path6301-7" d="m27.594 1027.8-1.375 11.656 0.90625 0.125 1.375-11.688-0.90625-0.094z" color="#000000" style="block-progression:tb;text-indent:0;text-transform:none"/>
   <path id="path3039" d="m26.801 1038.4-0.80847-1.0248 0.53813 3.3163 1.2951-3.1-1.0247 0.8085z" fill-rule="evenodd" stroke="#000" stroke-width=".18459pt"/>
  </g>
  <g id="g3041">
   <path id="path6301-5" d="m11.719 1027.1-0.90625 0.1875 1.75 7.8438 0.375 1.7187 0.4375 1.9063 0.875-0.1876-0.40625-1.9062-0.375-1.7188-1.75-7.8437z" color="#000000" style="block-progression:tb;text-indent:0;text-transform:none"/>
   <path id="path3047" d="m13.574 1037.6-1.1013-0.7007 1.6021 2.953 0.1998-3.3536-0.70063 1.1013z" fill-rule="evenodd" stroke="#000" stroke-width=".18459pt"/>
  </g>
 </g>
</svg>
